<mxfile host="app.diagrams.net" agent="Mozilla/5.0 (Windows NT 10.0; Win64; x64) AppleWebKit/537.36 (KHTML, like Gecko) Chrome/138.0.0.0 Safari/537.36" version="28.0.7">
  <diagram name="Page-1" id="-zt-V17A9h4oIsnnDuv3">
    <mxGraphModel dx="2316" dy="1171" grid="1" gridSize="10" guides="1" tooltips="1" connect="1" arrows="1" fold="1" page="1" pageScale="1" pageWidth="850" pageHeight="1100" math="0" shadow="0">
      <root>
        <mxCell id="0" />
        <mxCell id="1" parent="0" />
        <mxCell id="Y5UtQf3HgI3IDYHOGd35-3" value="" style="swimlane;startSize=0;" parent="1" vertex="1">
          <mxGeometry x="250" y="90" width="470" height="730" as="geometry" />
        </mxCell>
        <mxCell id="Y5UtQf3HgI3IDYHOGd35-5" value="View product" style="ellipse;whiteSpace=wrap;html=1;" parent="Y5UtQf3HgI3IDYHOGd35-3" vertex="1">
          <mxGeometry x="80" y="40" width="120" height="70" as="geometry" />
        </mxCell>
        <mxCell id="Y5UtQf3HgI3IDYHOGd35-6" value="Browse channels by distance" style="ellipse;whiteSpace=wrap;html=1;" parent="Y5UtQf3HgI3IDYHOGd35-3" vertex="1">
          <mxGeometry x="80" y="120" width="120" height="70" as="geometry" />
        </mxCell>
        <mxCell id="Y5UtQf3HgI3IDYHOGd35-7" value="Search for channels and products" style="ellipse;whiteSpace=wrap;html=1;" parent="Y5UtQf3HgI3IDYHOGd35-3" vertex="1">
          <mxGeometry x="80" y="200" width="120" height="70" as="geometry" />
        </mxCell>
        <mxCell id="Y5UtQf3HgI3IDYHOGd35-8" value="Search products in channel" style="ellipse;whiteSpace=wrap;html=1;" parent="Y5UtQf3HgI3IDYHOGd35-3" vertex="1">
          <mxGeometry x="80" y="290" width="120" height="70" as="geometry" />
        </mxCell>
        <mxCell id="Y5UtQf3HgI3IDYHOGd35-9" value="View channels details" style="ellipse;whiteSpace=wrap;html=1;" parent="Y5UtQf3HgI3IDYHOGd35-3" vertex="1">
          <mxGeometry x="80" y="370" width="120" height="70" as="geometry" />
        </mxCell>
        <mxCell id="Y5UtQf3HgI3IDYHOGd35-11" value="Update products details with the same sku" style="ellipse;whiteSpace=wrap;html=1;" parent="Y5UtQf3HgI3IDYHOGd35-3" vertex="1">
          <mxGeometry x="80" y="470" width="120" height="70" as="geometry" />
        </mxCell>
        <mxCell id="Y5UtQf3HgI3IDYHOGd35-12" value="Update products variants with the same sku" style="ellipse;whiteSpace=wrap;html=1;" parent="Y5UtQf3HgI3IDYHOGd35-3" vertex="1">
          <mxGeometry x="80" y="550" width="120" height="70" as="geometry" />
        </mxCell>
        <mxCell id="Y5UtQf3HgI3IDYHOGd35-20" value="Basic auth Guard" style="ellipse;whiteSpace=wrap;html=1;" parent="Y5UtQf3HgI3IDYHOGd35-3" vertex="1">
          <mxGeometry x="330" y="170" width="120" height="80" as="geometry" />
        </mxCell>
        <mxCell id="Y5UtQf3HgI3IDYHOGd35-22" value="" style="endArrow=classic;html=1;rounded=0;exitX=0.997;exitY=0.595;exitDx=0;exitDy=0;exitPerimeter=0;entryX=0.294;entryY=0.013;entryDx=0;entryDy=0;entryPerimeter=0;dashed=1;" parent="Y5UtQf3HgI3IDYHOGd35-3" source="Y5UtQf3HgI3IDYHOGd35-5" target="Y5UtQf3HgI3IDYHOGd35-20" edge="1">
          <mxGeometry width="50" height="50" relative="1" as="geometry">
            <mxPoint x="280" y="200" as="sourcePoint" />
            <mxPoint x="330" y="150" as="targetPoint" />
          </mxGeometry>
        </mxCell>
        <mxCell id="Y5UtQf3HgI3IDYHOGd35-34" value="" style="endArrow=classic;html=1;rounded=0;entryX=0.033;entryY=0.664;entryDx=0;entryDy=0;entryPerimeter=0;dashed=1;" parent="Y5UtQf3HgI3IDYHOGd35-3" source="Y5UtQf3HgI3IDYHOGd35-7" target="Y5UtQf3HgI3IDYHOGd35-20" edge="1">
          <mxGeometry width="50" height="50" relative="1" as="geometry">
            <mxPoint x="280" y="219" as="sourcePoint" />
            <mxPoint x="404" y="180" as="targetPoint" />
          </mxGeometry>
        </mxCell>
        <mxCell id="Y5UtQf3HgI3IDYHOGd35-35" value="" style="endArrow=classic;html=1;rounded=0;entryX=0;entryY=1;entryDx=0;entryDy=0;dashed=1;" parent="Y5UtQf3HgI3IDYHOGd35-3" source="Y5UtQf3HgI3IDYHOGd35-8" target="Y5UtQf3HgI3IDYHOGd35-20" edge="1">
          <mxGeometry width="50" height="50" relative="1" as="geometry">
            <mxPoint x="230" y="309" as="sourcePoint" />
            <mxPoint x="354" y="270" as="targetPoint" />
          </mxGeometry>
        </mxCell>
        <mxCell id="Y5UtQf3HgI3IDYHOGd35-36" value="" style="endArrow=classic;html=1;rounded=0;entryX=0.247;entryY=0.965;entryDx=0;entryDy=0;entryPerimeter=0;dashed=1;" parent="Y5UtQf3HgI3IDYHOGd35-3" source="Y5UtQf3HgI3IDYHOGd35-9" target="Y5UtQf3HgI3IDYHOGd35-20" edge="1">
          <mxGeometry width="50" height="50" relative="1" as="geometry">
            <mxPoint x="250" y="349" as="sourcePoint" />
            <mxPoint x="374" y="310" as="targetPoint" />
          </mxGeometry>
        </mxCell>
        <mxCell id="Y5UtQf3HgI3IDYHOGd35-37" value="&amp;lt;&amp;lt;include&amp;gt;&amp;gt;" style="text;html=1;align=center;verticalAlign=middle;whiteSpace=wrap;rounded=0;" parent="Y5UtQf3HgI3IDYHOGd35-3" vertex="1">
          <mxGeometry x="250" y="90" width="60" height="30" as="geometry" />
        </mxCell>
        <mxCell id="Y5UtQf3HgI3IDYHOGd35-40" value="&amp;lt;&amp;lt;include&amp;gt;&amp;gt;" style="text;html=1;align=center;verticalAlign=middle;whiteSpace=wrap;rounded=0;" parent="Y5UtQf3HgI3IDYHOGd35-3" vertex="1">
          <mxGeometry x="220" y="210" width="60" height="30" as="geometry" />
        </mxCell>
        <mxCell id="Y5UtQf3HgI3IDYHOGd35-41" value="&amp;lt;&amp;lt;include&amp;gt;&amp;gt;" style="text;html=1;align=center;verticalAlign=middle;whiteSpace=wrap;rounded=0;rotation=-15;" parent="Y5UtQf3HgI3IDYHOGd35-3" vertex="1">
          <mxGeometry x="220" y="250" width="60" height="30" as="geometry" />
        </mxCell>
        <mxCell id="Y5UtQf3HgI3IDYHOGd35-42" value="&amp;lt;&amp;lt;include&amp;gt;&amp;gt;" style="text;html=1;align=center;verticalAlign=middle;whiteSpace=wrap;rounded=0;rotation=0;" parent="Y5UtQf3HgI3IDYHOGd35-3" vertex="1">
          <mxGeometry x="250" y="310" width="60" height="30" as="geometry" />
        </mxCell>
        <mxCell id="Y5UtQf3HgI3IDYHOGd35-43" value="Authentication" style="ellipse;whiteSpace=wrap;html=1;" parent="Y5UtQf3HgI3IDYHOGd35-3" vertex="1">
          <mxGeometry x="300" y="490" width="120" height="80" as="geometry" />
        </mxCell>
        <mxCell id="Y5UtQf3HgI3IDYHOGd35-44" value="" style="endArrow=classic;html=1;rounded=0;entryX=0;entryY=1;entryDx=0;entryDy=0;dashed=1;exitX=1;exitY=0.5;exitDx=0;exitDy=0;" parent="Y5UtQf3HgI3IDYHOGd35-3" source="Y5UtQf3HgI3IDYHOGd35-12" target="Y5UtQf3HgI3IDYHOGd35-43" edge="1">
          <mxGeometry width="50" height="50" relative="1" as="geometry">
            <mxPoint x="230" y="631" as="sourcePoint" />
            <mxPoint x="412" y="500" as="targetPoint" />
          </mxGeometry>
        </mxCell>
        <mxCell id="Y5UtQf3HgI3IDYHOGd35-45" value="&amp;lt;&amp;lt;include&amp;gt;&amp;gt;" style="text;html=1;align=center;verticalAlign=middle;whiteSpace=wrap;rounded=0;rotation=0;" parent="Y5UtQf3HgI3IDYHOGd35-3" vertex="1">
          <mxGeometry x="230" y="560" width="60" height="30" as="geometry" />
        </mxCell>
        <mxCell id="Y5UtQf3HgI3IDYHOGd35-46" value="" style="endArrow=classic;html=1;rounded=0;entryX=0.006;entryY=0.341;entryDx=0;entryDy=0;entryPerimeter=0;dashed=1;exitX=1;exitY=0.5;exitDx=0;exitDy=0;" parent="Y5UtQf3HgI3IDYHOGd35-3" source="Y5UtQf3HgI3IDYHOGd35-11" target="Y5UtQf3HgI3IDYHOGd35-43" edge="1">
          <mxGeometry width="50" height="50" relative="1" as="geometry">
            <mxPoint x="250" y="631" as="sourcePoint" />
            <mxPoint x="432" y="500" as="targetPoint" />
          </mxGeometry>
        </mxCell>
        <mxCell id="Y5UtQf3HgI3IDYHOGd35-47" value="&amp;lt;&amp;lt;include&amp;gt;&amp;gt;" style="text;html=1;align=center;verticalAlign=middle;whiteSpace=wrap;rounded=0;rotation=0;" parent="Y5UtQf3HgI3IDYHOGd35-3" vertex="1">
          <mxGeometry x="230" y="490" width="60" height="30" as="geometry" />
        </mxCell>
        <mxCell id="Y5UtQf3HgI3IDYHOGd35-4" value="User" style="shape=umlActor;verticalLabelPosition=bottom;verticalAlign=top;html=1;outlineConnect=0;" parent="Y5UtQf3HgI3IDYHOGd35-3" vertex="1">
          <mxGeometry x="-90" y="170" width="40" height="70" as="geometry" />
        </mxCell>
        <mxCell id="Y5UtQf3HgI3IDYHOGd35-10" value="Admin" style="shape=umlActor;verticalLabelPosition=bottom;verticalAlign=top;html=1;outlineConnect=0;" parent="Y5UtQf3HgI3IDYHOGd35-3" vertex="1">
          <mxGeometry x="-85" y="500" width="30" height="60" as="geometry" />
        </mxCell>
        <mxCell id="Y5UtQf3HgI3IDYHOGd35-13" value="" style="endArrow=classic;html=1;rounded=0;entryX=0.023;entryY=0.666;entryDx=0;entryDy=0;entryPerimeter=0;" parent="Y5UtQf3HgI3IDYHOGd35-3" target="Y5UtQf3HgI3IDYHOGd35-5" edge="1">
          <mxGeometry width="50" height="50" relative="1" as="geometry">
            <mxPoint x="-50" y="200" as="sourcePoint" />
            <mxPoint x="90" y="270" as="targetPoint" />
          </mxGeometry>
        </mxCell>
        <mxCell id="Y5UtQf3HgI3IDYHOGd35-14" value="" style="endArrow=classic;html=1;rounded=0;entryX=0.017;entryY=0.588;entryDx=0;entryDy=0;entryPerimeter=0;" parent="Y5UtQf3HgI3IDYHOGd35-3" target="Y5UtQf3HgI3IDYHOGd35-7" edge="1">
          <mxGeometry width="50" height="50" relative="1" as="geometry">
            <mxPoint x="-50" y="200" as="sourcePoint" />
            <mxPoint x="90" y="270" as="targetPoint" />
          </mxGeometry>
        </mxCell>
        <mxCell id="Y5UtQf3HgI3IDYHOGd35-15" value="" style="endArrow=classic;html=1;rounded=0;entryX=0.049;entryY=0.652;entryDx=0;entryDy=0;entryPerimeter=0;" parent="Y5UtQf3HgI3IDYHOGd35-3" source="Y5UtQf3HgI3IDYHOGd35-4" target="Y5UtQf3HgI3IDYHOGd35-6" edge="1">
          <mxGeometry width="50" height="50" relative="1" as="geometry">
            <mxPoint x="40" y="320" as="sourcePoint" />
            <mxPoint x="90" y="270" as="targetPoint" />
          </mxGeometry>
        </mxCell>
        <mxCell id="Y5UtQf3HgI3IDYHOGd35-16" value="" style="endArrow=classic;html=1;rounded=0;entryX=0;entryY=0.5;entryDx=0;entryDy=0;" parent="Y5UtQf3HgI3IDYHOGd35-3" target="Y5UtQf3HgI3IDYHOGd35-8" edge="1">
          <mxGeometry width="50" height="50" relative="1" as="geometry">
            <mxPoint x="-50" y="200" as="sourcePoint" />
            <mxPoint x="30" y="290" as="targetPoint" />
          </mxGeometry>
        </mxCell>
        <mxCell id="Y5UtQf3HgI3IDYHOGd35-17" value="" style="endArrow=classic;html=1;rounded=0;entryX=0;entryY=0.5;entryDx=0;entryDy=0;" parent="Y5UtQf3HgI3IDYHOGd35-3" target="Y5UtQf3HgI3IDYHOGd35-9" edge="1">
          <mxGeometry width="50" height="50" relative="1" as="geometry">
            <mxPoint x="-50" y="200" as="sourcePoint" />
            <mxPoint x="30" y="320" as="targetPoint" />
          </mxGeometry>
        </mxCell>
        <mxCell id="Y5UtQf3HgI3IDYHOGd35-18" value="" style="endArrow=classic;html=1;rounded=0;entryX=0;entryY=0.5;entryDx=0;entryDy=0;" parent="Y5UtQf3HgI3IDYHOGd35-3" target="Y5UtQf3HgI3IDYHOGd35-11" edge="1">
          <mxGeometry width="50" height="50" relative="1" as="geometry">
            <mxPoint x="-50" y="530" as="sourcePoint" />
            <mxPoint x="70" y="480" as="targetPoint" />
          </mxGeometry>
        </mxCell>
        <mxCell id="Y5UtQf3HgI3IDYHOGd35-19" value="" style="endArrow=classic;html=1;rounded=0;entryX=0;entryY=0.5;entryDx=0;entryDy=0;" parent="Y5UtQf3HgI3IDYHOGd35-3" target="Y5UtQf3HgI3IDYHOGd35-12" edge="1">
          <mxGeometry width="50" height="50" relative="1" as="geometry">
            <mxPoint x="-50" y="530" as="sourcePoint" />
            <mxPoint x="70" y="480" as="targetPoint" />
          </mxGeometry>
        </mxCell>
        <mxCell id="Y5UtQf3HgI3IDYHOGd35-23" value="" style="endArrow=classic;html=1;rounded=0;exitX=0.997;exitY=0.595;exitDx=0;exitDy=0;exitPerimeter=0;entryX=0.031;entryY=0.388;entryDx=0;entryDy=0;entryPerimeter=0;dashed=1;" parent="Y5UtQf3HgI3IDYHOGd35-3" target="Y5UtQf3HgI3IDYHOGd35-20" edge="1">
          <mxGeometry width="50" height="50" relative="1" as="geometry">
            <mxPoint x="200" y="150" as="sourcePoint" />
            <mxPoint x="355" y="153" as="targetPoint" />
          </mxGeometry>
        </mxCell>
        <mxCell id="Y5UtQf3HgI3IDYHOGd35-39" value="&amp;lt;&amp;lt;include&amp;gt;&amp;gt;" style="text;html=1;align=center;verticalAlign=middle;whiteSpace=wrap;rounded=0;" parent="Y5UtQf3HgI3IDYHOGd35-3" vertex="1">
          <mxGeometry x="240" y="150" width="60" height="30" as="geometry" />
        </mxCell>
        <mxCell id="lFr_UAIBgHDYgoveQ9sL-2" value="sequence #1 Update products details" style="swimlane;whiteSpace=wrap" parent="1" vertex="1">
          <mxGeometry x="950" y="180" width="780" height="710" as="geometry" />
        </mxCell>
        <mxCell id="lFr_UAIBgHDYgoveQ9sL-3" style="edgeStyle=orthogonalEdgeStyle;rounded=0;orthogonalLoop=1;jettySize=auto;html=1;entryX=0;entryY=0.5;entryDx=0;entryDy=0;" parent="lFr_UAIBgHDYgoveQ9sL-2" edge="1">
          <mxGeometry relative="1" as="geometry">
            <Array as="points">
              <mxPoint x="60" y="489" />
              <mxPoint x="60" y="233" />
            </Array>
            <mxPoint x="150" y="233" as="targetPoint" />
          </mxGeometry>
        </mxCell>
        <mxCell id="lFr_UAIBgHDYgoveQ9sL-4" style="edgeStyle=orthogonalEdgeStyle;rounded=0;orthogonalLoop=1;jettySize=auto;html=1;endArrow=none;startFill=0;dashed=1;" parent="lFr_UAIBgHDYgoveQ9sL-2" edge="1">
          <mxGeometry relative="1" as="geometry">
            <mxPoint x="104.75" y="210" as="targetPoint" />
            <mxPoint x="105" y="170" as="sourcePoint" />
            <Array as="points">
              <mxPoint x="105" y="191" />
            </Array>
          </mxGeometry>
        </mxCell>
        <mxCell id="lFr_UAIBgHDYgoveQ9sL-5" value="Admin" style="shape=umlActor;verticalLabelPosition=bottom;verticalAlign=top;html=1;fillColor=#e1d5e7;strokeColor=#9673a6;" parent="lFr_UAIBgHDYgoveQ9sL-2" vertex="1">
          <mxGeometry x="90" y="90" width="30" height="60" as="geometry" />
        </mxCell>
        <mxCell id="lFr_UAIBgHDYgoveQ9sL-6" value="" style="html=1;points=[[0,0,0,0,5],[0,1,0,0,-5],[1,0,0,0,5],[1,1,0,0,-5]];perimeter=orthogonalPerimeter;outlineConnect=0;targetShapes=umlLifeline;portConstraint=eastwest;newEdgeStyle={&quot;curved&quot;:0,&quot;rounded&quot;:0};fillColor=#e1d5e7;strokeColor=#9673a6;" parent="lFr_UAIBgHDYgoveQ9sL-2" vertex="1">
          <mxGeometry x="100" y="210" width="10" height="450" as="geometry" />
        </mxCell>
        <mxCell id="lFr_UAIBgHDYgoveQ9sL-7" value="Frontend" style="html=1;whiteSpace=wrap;fillColor=#dae8fc;strokeColor=#6c8ebf;" parent="lFr_UAIBgHDYgoveQ9sL-2" vertex="1">
          <mxGeometry x="240" y="110" width="110" height="50" as="geometry" />
        </mxCell>
        <mxCell id="lFr_UAIBgHDYgoveQ9sL-8" value="API" style="html=1;whiteSpace=wrap;fillColor=#d5e8d4;strokeColor=#82b366;" parent="lFr_UAIBgHDYgoveQ9sL-2" vertex="1">
          <mxGeometry x="430" y="110" width="110" height="50" as="geometry" />
        </mxCell>
        <mxCell id="lFr_UAIBgHDYgoveQ9sL-9" value="Database" style="html=1;whiteSpace=wrap;fillColor=#ffe6cc;strokeColor=#d79b00;" parent="lFr_UAIBgHDYgoveQ9sL-2" vertex="1">
          <mxGeometry x="620" y="110" width="110" height="50" as="geometry" />
        </mxCell>
        <mxCell id="lFr_UAIBgHDYgoveQ9sL-10" value="" style="html=1;points=[[0,0,0,0,5],[0,1,0,0,-5],[1,0,0,0,5],[1,1,0,0,-5]];perimeter=orthogonalPerimeter;outlineConnect=0;targetShapes=umlLifeline;portConstraint=eastwest;newEdgeStyle={&quot;curved&quot;:0,&quot;rounded&quot;:0};fillColor=#dae8fc;strokeColor=#6c8ebf;" parent="lFr_UAIBgHDYgoveQ9sL-2" vertex="1">
          <mxGeometry x="290" y="210" width="10" height="450" as="geometry" />
        </mxCell>
        <mxCell id="lFr_UAIBgHDYgoveQ9sL-11" value="" style="html=1;points=[[0,0,0,0,5],[0,1,0,0,-5],[1,0,0,0,5],[1,1,0,0,-5]];perimeter=orthogonalPerimeter;outlineConnect=0;targetShapes=umlLifeline;portConstraint=eastwest;newEdgeStyle={&quot;curved&quot;:0,&quot;rounded&quot;:0};fillColor=#d5e8d4;strokeColor=#82b366;" parent="lFr_UAIBgHDYgoveQ9sL-2" vertex="1">
          <mxGeometry x="480" y="210" width="10" height="450" as="geometry" />
        </mxCell>
        <mxCell id="lFr_UAIBgHDYgoveQ9sL-12" value="" style="html=1;points=[[0,0,0,0,5],[0,1,0,0,-5],[1,0,0,0,5],[1,1,0,0,-5]];perimeter=orthogonalPerimeter;outlineConnect=0;targetShapes=umlLifeline;portConstraint=eastwest;newEdgeStyle={&quot;curved&quot;:0,&quot;rounded&quot;:0};fillColor=#ffe6cc;strokeColor=#d79b00;" parent="lFr_UAIBgHDYgoveQ9sL-2" vertex="1">
          <mxGeometry x="670" y="210" width="10" height="450" as="geometry" />
        </mxCell>
        <mxCell id="lFr_UAIBgHDYgoveQ9sL-13" value="Input the field that want to change" style="html=1;verticalAlign=bottom;endArrow=block;curved=0;rounded=0;" parent="lFr_UAIBgHDYgoveQ9sL-2" edge="1">
          <mxGeometry y="10" width="80" relative="1" as="geometry">
            <mxPoint x="110" y="290" as="sourcePoint" />
            <mxPoint x="290" y="290" as="targetPoint" />
            <mxPoint as="offset" />
            <Array as="points">
              <mxPoint x="200" y="290" />
            </Array>
          </mxGeometry>
        </mxCell>
        <mxCell id="lFr_UAIBgHDYgoveQ9sL-19" value="Tick on update product with sku" style="html=1;verticalAlign=bottom;endArrow=block;curved=0;rounded=0;" parent="lFr_UAIBgHDYgoveQ9sL-2" edge="1">
          <mxGeometry y="5" width="80" relative="1" as="geometry">
            <mxPoint x="110" y="330.00000000000006" as="sourcePoint" />
            <mxPoint x="290" y="330.00000000000006" as="targetPoint" />
            <mxPoint as="offset" />
          </mxGeometry>
        </mxCell>
        <mxCell id="lFr_UAIBgHDYgoveQ9sL-31" value="Show message dialog" style="html=1;verticalAlign=bottom;endArrow=block;curved=0;rounded=0;dashed=1;strokeWidth=1;" parent="lFr_UAIBgHDYgoveQ9sL-2" edge="1">
          <mxGeometry width="80" relative="1" as="geometry">
            <mxPoint x="290" y="610" as="sourcePoint" />
            <mxPoint x="110" y="610" as="targetPoint" />
            <mxPoint as="offset" />
          </mxGeometry>
        </mxCell>
        <mxCell id="lFr_UAIBgHDYgoveQ9sL-40" style="edgeStyle=orthogonalEdgeStyle;rounded=0;orthogonalLoop=1;jettySize=auto;html=1;endArrow=none;startFill=0;dashed=1;exitX=0.496;exitY=1.056;exitDx=0;exitDy=0;exitPerimeter=0;" parent="lFr_UAIBgHDYgoveQ9sL-2" source="lFr_UAIBgHDYgoveQ9sL-7" edge="1">
          <mxGeometry relative="1" as="geometry">
            <mxPoint x="294.85" y="210" as="targetPoint" />
            <mxPoint x="295.1" y="170" as="sourcePoint" />
            <Array as="points">
              <mxPoint x="295" y="191" />
            </Array>
          </mxGeometry>
        </mxCell>
        <mxCell id="lFr_UAIBgHDYgoveQ9sL-42" style="edgeStyle=orthogonalEdgeStyle;rounded=0;orthogonalLoop=1;jettySize=auto;html=1;endArrow=none;startFill=0;dashed=1;exitX=0.496;exitY=1.056;exitDx=0;exitDy=0;exitPerimeter=0;" parent="lFr_UAIBgHDYgoveQ9sL-2" edge="1">
          <mxGeometry relative="1" as="geometry">
            <mxPoint x="484.81999999999994" y="210" as="targetPoint" />
            <mxPoint x="484.97" y="163" as="sourcePoint" />
            <Array as="points">
              <mxPoint x="484.97" y="191" />
            </Array>
          </mxGeometry>
        </mxCell>
        <mxCell id="lFr_UAIBgHDYgoveQ9sL-43" style="edgeStyle=orthogonalEdgeStyle;rounded=0;orthogonalLoop=1;jettySize=auto;html=1;endArrow=none;startFill=0;dashed=1;exitX=0.496;exitY=1.056;exitDx=0;exitDy=0;exitPerimeter=0;" parent="lFr_UAIBgHDYgoveQ9sL-2" edge="1">
          <mxGeometry relative="1" as="geometry">
            <mxPoint x="674.8199999999999" y="210" as="targetPoint" />
            <mxPoint x="674.97" y="163" as="sourcePoint" />
            <Array as="points">
              <mxPoint x="674.97" y="191" />
            </Array>
          </mxGeometry>
        </mxCell>
        <mxCell id="lFr_UAIBgHDYgoveQ9sL-47" value="Click on products details taps" style="html=1;verticalAlign=bottom;endArrow=block;curved=0;rounded=0;" parent="lFr_UAIBgHDYgoveQ9sL-2" edge="1">
          <mxGeometry y="10" width="80" relative="1" as="geometry">
            <mxPoint x="110" y="250" as="sourcePoint" />
            <mxPoint x="290" y="250" as="targetPoint" />
            <mxPoint as="offset" />
            <Array as="points">
              <mxPoint x="200" y="250" />
            </Array>
          </mxGeometry>
        </mxCell>
        <mxCell id="lFr_UAIBgHDYgoveQ9sL-48" value="Click on update button" style="html=1;verticalAlign=bottom;endArrow=block;curved=0;rounded=0;" parent="lFr_UAIBgHDYgoveQ9sL-2" edge="1">
          <mxGeometry y="5" width="80" relative="1" as="geometry">
            <mxPoint x="110" y="370" as="sourcePoint" />
            <mxPoint x="290" y="370" as="targetPoint" />
            <mxPoint as="offset" />
          </mxGeometry>
        </mxCell>
        <mxCell id="lFr_UAIBgHDYgoveQ9sL-91" value="update all products with&amp;nbsp;&lt;div&gt;the same sku&lt;/div&gt;" style="html=1;verticalAlign=bottom;endArrow=block;curved=0;rounded=0;" parent="lFr_UAIBgHDYgoveQ9sL-2" edge="1">
          <mxGeometry width="80" relative="1" as="geometry">
            <mxPoint x="490" y="450" as="sourcePoint" />
            <mxPoint x="670" y="450" as="targetPoint" />
            <mxPoint as="offset" />
          </mxGeometry>
        </mxCell>
        <mxCell id="lFr_UAIBgHDYgoveQ9sL-92" value="alt" style="shape=umlFrame;whiteSpace=wrap;html=1;pointerEvents=0;recursiveResize=0;container=1;collapsible=0;width=40;height=20;fontSize=9;" parent="lFr_UAIBgHDYgoveQ9sL-2" vertex="1">
          <mxGeometry x="260" y="380" width="450" height="190" as="geometry" />
        </mxCell>
        <mxCell id="lFr_UAIBgHDYgoveQ9sL-93" value="[valid information]" style="text;html=1;fontSize=9;" parent="lFr_UAIBgHDYgoveQ9sL-92" vertex="1">
          <mxGeometry width="100" height="20" relative="1" as="geometry">
            <mxPoint x="41" as="offset" />
          </mxGeometry>
        </mxCell>
        <mxCell id="lFr_UAIBgHDYgoveQ9sL-94" value="" style="line;strokeWidth=1;labelPosition=center;verticalLabelPosition=bottom;align=left;verticalAlign=top;spacingLeft=20;spacingTop=15;html=1;whiteSpace=wrap;" parent="lFr_UAIBgHDYgoveQ9sL-92" vertex="1">
          <mxGeometry y="125" width="450" height="10" as="geometry" />
        </mxCell>
        <mxCell id="lFr_UAIBgHDYgoveQ9sL-95" value="&lt;span style=&quot;font-size: 9px; text-align: left; text-wrap-mode: nowrap;&quot;&gt;[invalid information]&lt;/span&gt;" style="text;html=1;align=center;verticalAlign=middle;whiteSpace=wrap;rounded=0;fontSize=8;" parent="lFr_UAIBgHDYgoveQ9sL-92" vertex="1">
          <mxGeometry x="50" y="125" width="60" height="30" as="geometry" />
        </mxCell>
        <mxCell id="lFr_UAIBgHDYgoveQ9sL-96" value="&lt;font style=&quot;&quot;&gt;reponse success message&lt;/font&gt;" style="html=1;verticalAlign=bottom;endArrow=block;curved=0;rounded=0;dashed=1;strokeWidth=1;fontColor=#00CC00;strokeColor=#00CC00;" parent="lFr_UAIBgHDYgoveQ9sL-92" edge="1">
          <mxGeometry width="80" relative="1" as="geometry">
            <mxPoint x="220" y="100" as="sourcePoint" />
            <mxPoint x="40" y="100" as="targetPoint" />
            <mxPoint as="offset" />
          </mxGeometry>
        </mxCell>
        <mxCell id="lFr_UAIBgHDYgoveQ9sL-99" value="&lt;font style=&quot;color: rgb(255, 51, 51);&quot;&gt;reponse error message&lt;/font&gt;" style="html=1;verticalAlign=bottom;endArrow=block;curved=0;rounded=0;dashed=1;strokeWidth=1;fontColor=#00CC00;strokeColor=#FF3333;" parent="lFr_UAIBgHDYgoveQ9sL-92" edge="1">
          <mxGeometry x="0.0032" width="80" relative="1" as="geometry">
            <mxPoint x="410" y="170.00000000000006" as="sourcePoint" />
            <mxPoint x="40" y="170" as="targetPoint" />
            <mxPoint as="offset" />
          </mxGeometry>
        </mxCell>
        <mxCell id="lFr_UAIBgHDYgoveQ9sL-15" value="Request with data to update&amp;nbsp;" style="html=1;verticalAlign=bottom;endArrow=block;curved=0;rounded=0;" parent="lFr_UAIBgHDYgoveQ9sL-92" edge="1">
          <mxGeometry width="80" relative="1" as="geometry">
            <mxPoint x="40" y="40" as="sourcePoint" />
            <mxPoint x="220" y="40" as="targetPoint" />
            <mxPoint as="offset" />
          </mxGeometry>
        </mxCell>
        <mxCell id="lFr_UAIBgHDYgoveQ9sL-49" value="sequence #1 workout session creation" style="swimlane;whiteSpace=wrap" parent="1" vertex="1">
          <mxGeometry x="120" y="2410" width="950" height="930" as="geometry" />
        </mxCell>
        <mxCell id="lFr_UAIBgHDYgoveQ9sL-50" style="edgeStyle=orthogonalEdgeStyle;rounded=0;orthogonalLoop=1;jettySize=auto;html=1;entryX=0;entryY=0.5;entryDx=0;entryDy=0;" parent="lFr_UAIBgHDYgoveQ9sL-49" edge="1">
          <mxGeometry relative="1" as="geometry">
            <Array as="points">
              <mxPoint x="60" y="489" />
              <mxPoint x="60" y="233" />
            </Array>
            <mxPoint x="150" y="233" as="targetPoint" />
          </mxGeometry>
        </mxCell>
        <mxCell id="lFr_UAIBgHDYgoveQ9sL-51" style="edgeStyle=orthogonalEdgeStyle;rounded=0;orthogonalLoop=1;jettySize=auto;html=1;endArrow=none;startFill=0;dashed=1;" parent="lFr_UAIBgHDYgoveQ9sL-49" edge="1">
          <mxGeometry relative="1" as="geometry">
            <mxPoint x="104.75" y="210" as="targetPoint" />
            <mxPoint x="105" y="170" as="sourcePoint" />
            <Array as="points">
              <mxPoint x="105" y="191" />
            </Array>
          </mxGeometry>
        </mxCell>
        <mxCell id="lFr_UAIBgHDYgoveQ9sL-52" value="Actor" style="shape=umlActor;verticalLabelPosition=bottom;verticalAlign=top;html=1;fillColor=#e1d5e7;strokeColor=#9673a6;" parent="lFr_UAIBgHDYgoveQ9sL-49" vertex="1">
          <mxGeometry x="90" y="90" width="30" height="60" as="geometry" />
        </mxCell>
        <mxCell id="lFr_UAIBgHDYgoveQ9sL-53" value="" style="html=1;points=[[0,0,0,0,5],[0,1,0,0,-5],[1,0,0,0,5],[1,1,0,0,-5]];perimeter=orthogonalPerimeter;outlineConnect=0;targetShapes=umlLifeline;portConstraint=eastwest;newEdgeStyle={&quot;curved&quot;:0,&quot;rounded&quot;:0};fillColor=#e1d5e7;strokeColor=#9673a6;" parent="lFr_UAIBgHDYgoveQ9sL-49" vertex="1">
          <mxGeometry x="100" y="210" width="10" height="680" as="geometry" />
        </mxCell>
        <mxCell id="lFr_UAIBgHDYgoveQ9sL-54" value="Frontend" style="html=1;whiteSpace=wrap;fillColor=#dae8fc;strokeColor=#6c8ebf;" parent="lFr_UAIBgHDYgoveQ9sL-49" vertex="1">
          <mxGeometry x="240" y="110" width="110" height="50" as="geometry" />
        </mxCell>
        <mxCell id="lFr_UAIBgHDYgoveQ9sL-55" value="API" style="html=1;whiteSpace=wrap;fillColor=#d5e8d4;strokeColor=#82b366;" parent="lFr_UAIBgHDYgoveQ9sL-49" vertex="1">
          <mxGeometry x="630" y="110" width="110" height="50" as="geometry" />
        </mxCell>
        <mxCell id="lFr_UAIBgHDYgoveQ9sL-56" value="Database" style="html=1;whiteSpace=wrap;fillColor=#ffe6cc;strokeColor=#d79b00;" parent="lFr_UAIBgHDYgoveQ9sL-49" vertex="1">
          <mxGeometry x="820" y="110" width="110" height="50" as="geometry" />
        </mxCell>
        <mxCell id="lFr_UAIBgHDYgoveQ9sL-57" value="" style="html=1;points=[[0,0,0,0,5],[0,1,0,0,-5],[1,0,0,0,5],[1,1,0,0,-5]];perimeter=orthogonalPerimeter;outlineConnect=0;targetShapes=umlLifeline;portConstraint=eastwest;newEdgeStyle={&quot;curved&quot;:0,&quot;rounded&quot;:0};fillColor=#dae8fc;strokeColor=#6c8ebf;" parent="lFr_UAIBgHDYgoveQ9sL-49" vertex="1">
          <mxGeometry x="290" y="210" width="10" height="680" as="geometry" />
        </mxCell>
        <mxCell id="lFr_UAIBgHDYgoveQ9sL-58" value="" style="html=1;points=[[0,0,0,0,5],[0,1,0,0,-5],[1,0,0,0,5],[1,1,0,0,-5]];perimeter=orthogonalPerimeter;outlineConnect=0;targetShapes=umlLifeline;portConstraint=eastwest;newEdgeStyle={&quot;curved&quot;:0,&quot;rounded&quot;:0};fillColor=#d5e8d4;strokeColor=#82b366;" parent="lFr_UAIBgHDYgoveQ9sL-49" vertex="1">
          <mxGeometry x="680" y="210" width="10" height="620" as="geometry" />
        </mxCell>
        <mxCell id="lFr_UAIBgHDYgoveQ9sL-59" value="" style="html=1;points=[[0,0,0,0,5],[0,1,0,0,-5],[1,0,0,0,5],[1,1,0,0,-5]];perimeter=orthogonalPerimeter;outlineConnect=0;targetShapes=umlLifeline;portConstraint=eastwest;newEdgeStyle={&quot;curved&quot;:0,&quot;rounded&quot;:0};fillColor=#ffe6cc;strokeColor=#d79b00;" parent="lFr_UAIBgHDYgoveQ9sL-49" vertex="1">
          <mxGeometry x="870" y="210" width="10" height="540" as="geometry" />
        </mxCell>
        <mxCell id="lFr_UAIBgHDYgoveQ9sL-60" value="Input workout title&amp;nbsp;&lt;br&gt;and description" style="html=1;verticalAlign=bottom;endArrow=block;curved=0;rounded=0;" parent="lFr_UAIBgHDYgoveQ9sL-49" edge="1">
          <mxGeometry width="80" relative="1" as="geometry">
            <mxPoint x="110" y="260" as="sourcePoint" />
            <mxPoint x="290" y="260" as="targetPoint" />
            <mxPoint as="offset" />
          </mxGeometry>
        </mxCell>
        <mxCell id="lFr_UAIBgHDYgoveQ9sL-61" value="validate input&lt;br&gt;(show error if title is missing)" style="html=1;verticalAlign=bottom;endArrow=block;curved=0;rounded=0;dashed=1;strokeWidth=1;" parent="lFr_UAIBgHDYgoveQ9sL-49" edge="1">
          <mxGeometry width="80" relative="1" as="geometry">
            <mxPoint x="290" y="290" as="sourcePoint" />
            <mxPoint x="110" y="290" as="targetPoint" />
            <mxPoint as="offset" />
          </mxGeometry>
        </mxCell>
        <mxCell id="lFr_UAIBgHDYgoveQ9sL-62" value="Request initial exercise list" style="html=1;verticalAlign=bottom;endArrow=block;curved=0;rounded=0;" parent="lFr_UAIBgHDYgoveQ9sL-49" edge="1">
          <mxGeometry width="80" relative="1" as="geometry">
            <mxPoint x="300" y="350" as="sourcePoint" />
            <mxPoint x="480" y="350" as="targetPoint" />
            <mxPoint as="offset" />
          </mxGeometry>
        </mxCell>
        <mxCell id="lFr_UAIBgHDYgoveQ9sL-63" value="display exercise&amp;nbsp;&lt;span style=&quot;background-color: light-dark(#ffffff, var(--ge-dark-color, #121212)); color: light-dark(rgb(0, 0, 0), rgb(255, 255, 255));&quot;&gt;selection screen&lt;/span&gt;&lt;div&gt;&lt;span style=&quot;background-color: light-dark(#ffffff, var(--ge-dark-color, #121212)); color: light-dark(rgb(0, 0, 0), rgb(255, 255, 255));&quot;&gt;with search option&lt;/span&gt;&lt;/div&gt;" style="html=1;verticalAlign=bottom;endArrow=block;curved=0;rounded=0;dashed=1;strokeWidth=1;" parent="lFr_UAIBgHDYgoveQ9sL-49" edge="1">
          <mxGeometry width="80" relative="1" as="geometry">
            <mxPoint x="290" y="390" as="sourcePoint" />
            <mxPoint x="110" y="390" as="targetPoint" />
            <mxPoint as="offset" />
          </mxGeometry>
        </mxCell>
        <mxCell id="lFr_UAIBgHDYgoveQ9sL-64" value="ExerciseDB API" style="html=1;whiteSpace=wrap;fillColor=#f8cecc;strokeColor=#b85450;fontSize=10;" parent="lFr_UAIBgHDYgoveQ9sL-49" vertex="1">
          <mxGeometry x="430" y="110" width="110" height="50" as="geometry" />
        </mxCell>
        <mxCell id="lFr_UAIBgHDYgoveQ9sL-65" value="" style="html=1;points=[[0,0,0,0,5],[0,1,0,0,-5],[1,0,0,0,5],[1,1,0,0,-5]];perimeter=orthogonalPerimeter;outlineConnect=0;targetShapes=umlLifeline;portConstraint=eastwest;newEdgeStyle={&quot;curved&quot;:0,&quot;rounded&quot;:0};fillColor=#f8cecc;strokeColor=#b85450;" parent="lFr_UAIBgHDYgoveQ9sL-49" vertex="1">
          <mxGeometry x="480" y="210" width="10" height="330" as="geometry" />
        </mxCell>
        <mxCell id="lFr_UAIBgHDYgoveQ9sL-66" value="Click on add exercise" style="html=1;verticalAlign=bottom;endArrow=block;curved=0;rounded=0;" parent="lFr_UAIBgHDYgoveQ9sL-49" edge="1">
          <mxGeometry width="80" relative="1" as="geometry">
            <mxPoint x="110" y="335.00000000000006" as="sourcePoint" />
            <mxPoint x="290" y="335.00000000000006" as="targetPoint" />
            <mxPoint as="offset" />
          </mxGeometry>
        </mxCell>
        <mxCell id="lFr_UAIBgHDYgoveQ9sL-67" value="returns available exercise" style="html=1;verticalAlign=bottom;endArrow=block;curved=0;rounded=0;dashed=1;strokeWidth=1;" parent="lFr_UAIBgHDYgoveQ9sL-49" edge="1">
          <mxGeometry x="0.0032" width="80" relative="1" as="geometry">
            <mxPoint x="480" y="370" as="sourcePoint" />
            <mxPoint x="300" y="370" as="targetPoint" />
            <mxPoint as="offset" />
          </mxGeometry>
        </mxCell>
        <mxCell id="lFr_UAIBgHDYgoveQ9sL-68" value="Search for specific exercise" style="html=1;verticalAlign=bottom;endArrow=block;curved=0;rounded=0;" parent="lFr_UAIBgHDYgoveQ9sL-49" edge="1">
          <mxGeometry width="80" relative="1" as="geometry">
            <mxPoint x="110" y="470" as="sourcePoint" />
            <mxPoint x="290" y="470" as="targetPoint" />
            <mxPoint as="offset" />
          </mxGeometry>
        </mxCell>
        <mxCell id="lFr_UAIBgHDYgoveQ9sL-69" value="send search query" style="html=1;verticalAlign=bottom;endArrow=block;curved=0;rounded=0;" parent="lFr_UAIBgHDYgoveQ9sL-49" edge="1">
          <mxGeometry width="80" relative="1" as="geometry">
            <mxPoint x="300" y="480" as="sourcePoint" />
            <mxPoint x="480" y="480" as="targetPoint" />
            <mxPoint as="offset" />
          </mxGeometry>
        </mxCell>
        <mxCell id="lFr_UAIBgHDYgoveQ9sL-70" value="returns available&amp;nbsp;&lt;div&gt;matching exercise&lt;/div&gt;" style="html=1;verticalAlign=bottom;endArrow=block;curved=0;rounded=0;dashed=1;strokeWidth=1;fontColor=#00CC00;strokeColor=#00CC00;" parent="lFr_UAIBgHDYgoveQ9sL-49" edge="1">
          <mxGeometry x="0.0032" width="80" relative="1" as="geometry">
            <mxPoint x="480" y="510" as="sourcePoint" />
            <mxPoint x="300" y="510" as="targetPoint" />
            <mxPoint as="offset" />
          </mxGeometry>
        </mxCell>
        <mxCell id="lFr_UAIBgHDYgoveQ9sL-71" value="display result" style="html=1;verticalAlign=bottom;endArrow=block;curved=0;rounded=0;dashed=1;strokeWidth=1;" parent="lFr_UAIBgHDYgoveQ9sL-49" edge="1">
          <mxGeometry x="0.0032" width="80" relative="1" as="geometry">
            <mxPoint x="290" y="549.67" as="sourcePoint" />
            <mxPoint x="110" y="549.67" as="targetPoint" />
            <mxPoint as="offset" />
          </mxGeometry>
        </mxCell>
        <mxCell id="lFr_UAIBgHDYgoveQ9sL-72" value="&quot;no results found&quot; if no match" style="html=1;verticalAlign=bottom;endArrow=block;curved=0;rounded=0;dashed=1;strokeWidth=1;strokeColor=#FF3333;fontColor=#FF3333;" parent="lFr_UAIBgHDYgoveQ9sL-49" edge="1">
          <mxGeometry x="0.0032" width="80" relative="1" as="geometry">
            <mxPoint x="480" y="529.67" as="sourcePoint" />
            <mxPoint x="300" y="529.67" as="targetPoint" />
            <mxPoint as="offset" />
          </mxGeometry>
        </mxCell>
        <mxCell id="lFr_UAIBgHDYgoveQ9sL-73" value="select exercise and&lt;br&gt;input target sets and rest time" style="html=1;verticalAlign=bottom;endArrow=block;curved=0;rounded=0;" parent="lFr_UAIBgHDYgoveQ9sL-49" edge="1">
          <mxGeometry width="80" relative="1" as="geometry">
            <mxPoint x="110" y="590" as="sourcePoint" />
            <mxPoint x="290" y="590" as="targetPoint" />
            <mxPoint as="offset" />
          </mxGeometry>
        </mxCell>
        <mxCell id="lFr_UAIBgHDYgoveQ9sL-74" value="validate input and save&lt;br&gt;exercise to workout" style="html=1;verticalAlign=bottom;endArrow=block;curved=0;rounded=0;dashed=1;strokeWidth=1;" parent="lFr_UAIBgHDYgoveQ9sL-49" edge="1">
          <mxGeometry x="0.0032" width="80" relative="1" as="geometry">
            <mxPoint x="290" y="630" as="sourcePoint" />
            <mxPoint x="110" y="630" as="targetPoint" />
            <mxPoint as="offset" />
          </mxGeometry>
        </mxCell>
        <mxCell id="lFr_UAIBgHDYgoveQ9sL-75" value="loop" style="shape=umlFrame;whiteSpace=wrap;html=1;pointerEvents=0;width=40;height=20;fontSize=8;" parent="lFr_UAIBgHDYgoveQ9sL-49" vertex="1">
          <mxGeometry x="70" y="420" width="430" height="220" as="geometry" />
        </mxCell>
        <mxCell id="lFr_UAIBgHDYgoveQ9sL-76" value="[&lt;font&gt;until user is done adding exercise]&lt;/font&gt;" style="text;html=1;align=center;verticalAlign=middle;whiteSpace=wrap;rounded=0;fontSize=8;" parent="lFr_UAIBgHDYgoveQ9sL-49" vertex="1">
          <mxGeometry x="100" y="420" width="150" height="30" as="geometry" />
        </mxCell>
        <mxCell id="lFr_UAIBgHDYgoveQ9sL-77" value="save workout" style="html=1;verticalAlign=bottom;endArrow=block;curved=0;rounded=0;" parent="lFr_UAIBgHDYgoveQ9sL-49" edge="1">
          <mxGeometry width="80" relative="1" as="geometry">
            <mxPoint x="110" y="680" as="sourcePoint" />
            <mxPoint x="290" y="680" as="targetPoint" />
            <mxPoint as="offset" />
          </mxGeometry>
        </mxCell>
        <mxCell id="lFr_UAIBgHDYgoveQ9sL-78" value="return to home screen" style="html=1;verticalAlign=bottom;endArrow=block;curved=0;rounded=0;dashed=1;strokeWidth=1;" parent="lFr_UAIBgHDYgoveQ9sL-49" edge="1">
          <mxGeometry width="80" relative="1" as="geometry">
            <mxPoint x="290" y="880" as="sourcePoint" />
            <mxPoint x="110" y="880" as="targetPoint" />
            <mxPoint as="offset" />
          </mxGeometry>
        </mxCell>
        <mxCell id="lFr_UAIBgHDYgoveQ9sL-79" value="alt" style="shape=umlFrame;whiteSpace=wrap;html=1;pointerEvents=0;recursiveResize=0;container=1;collapsible=0;width=40;height=20;fontSize=9;" parent="lFr_UAIBgHDYgoveQ9sL-49" vertex="1">
          <mxGeometry x="270" y="650" width="630" height="190" as="geometry" />
        </mxCell>
        <mxCell id="lFr_UAIBgHDYgoveQ9sL-80" value="[valid information]" style="text;html=1;fontSize=9;" parent="lFr_UAIBgHDYgoveQ9sL-79" vertex="1">
          <mxGeometry width="100" height="20" relative="1" as="geometry">
            <mxPoint x="41" as="offset" />
          </mxGeometry>
        </mxCell>
        <mxCell id="lFr_UAIBgHDYgoveQ9sL-81" value="" style="line;strokeWidth=1;labelPosition=center;verticalLabelPosition=bottom;align=left;verticalAlign=top;spacingLeft=20;spacingTop=15;html=1;whiteSpace=wrap;" parent="lFr_UAIBgHDYgoveQ9sL-79" vertex="1">
          <mxGeometry y="125" width="630" height="10" as="geometry" />
        </mxCell>
        <mxCell id="lFr_UAIBgHDYgoveQ9sL-82" value="&lt;span style=&quot;font-size: 9px; text-align: left; text-wrap-mode: nowrap;&quot;&gt;[invalid information]&lt;/span&gt;" style="text;html=1;align=center;verticalAlign=middle;whiteSpace=wrap;rounded=0;fontSize=8;" parent="lFr_UAIBgHDYgoveQ9sL-79" vertex="1">
          <mxGeometry x="50" y="125" width="60" height="30" as="geometry" />
        </mxCell>
        <mxCell id="lFr_UAIBgHDYgoveQ9sL-83" value="&lt;font style=&quot;&quot;&gt;reponse workout and success message&lt;/font&gt;" style="html=1;verticalAlign=bottom;endArrow=block;curved=0;rounded=0;dashed=1;strokeWidth=1;fontColor=#00CC00;strokeColor=#00CC00;" parent="lFr_UAIBgHDYgoveQ9sL-79" edge="1">
          <mxGeometry x="0.0032" width="80" relative="1" as="geometry">
            <mxPoint x="410" y="99.58000000000004" as="sourcePoint" />
            <mxPoint x="30" y="99.58000000000004" as="targetPoint" />
            <mxPoint as="offset" />
          </mxGeometry>
        </mxCell>
        <mxCell id="lFr_UAIBgHDYgoveQ9sL-84" value="send workout data (title, description, exercises with sets and rest times)" style="html=1;verticalAlign=bottom;endArrow=block;curved=0;rounded=0;" parent="lFr_UAIBgHDYgoveQ9sL-79" edge="1">
          <mxGeometry width="80" relative="1" as="geometry">
            <mxPoint x="30" y="60" as="sourcePoint" />
            <mxPoint x="410" y="60" as="targetPoint" />
            <mxPoint as="offset" />
          </mxGeometry>
        </mxCell>
        <mxCell id="lFr_UAIBgHDYgoveQ9sL-85" value="store workout data" style="html=1;verticalAlign=bottom;endArrow=block;curved=0;rounded=0;" parent="lFr_UAIBgHDYgoveQ9sL-79" edge="1">
          <mxGeometry width="80" relative="1" as="geometry">
            <mxPoint x="420" y="80" as="sourcePoint" />
            <mxPoint x="600" y="80" as="targetPoint" />
            <mxPoint as="offset" />
          </mxGeometry>
        </mxCell>
        <mxCell id="lFr_UAIBgHDYgoveQ9sL-86" value="&lt;font style=&quot;color: rgb(255, 51, 51);&quot;&gt;reponse error message&lt;/font&gt;" style="html=1;verticalAlign=bottom;endArrow=block;curved=0;rounded=0;dashed=1;strokeWidth=1;fontColor=#00CC00;strokeColor=#FF3333;" parent="lFr_UAIBgHDYgoveQ9sL-79" edge="1">
          <mxGeometry x="0.0032" width="80" relative="1" as="geometry">
            <mxPoint x="410" y="170.00000000000006" as="sourcePoint" />
            <mxPoint x="30" y="170.00000000000006" as="targetPoint" />
            <mxPoint as="offset" />
          </mxGeometry>
        </mxCell>
        <mxCell id="lFr_UAIBgHDYgoveQ9sL-87" style="edgeStyle=orthogonalEdgeStyle;rounded=0;orthogonalLoop=1;jettySize=auto;html=1;endArrow=none;startFill=0;dashed=1;exitX=0.496;exitY=1.056;exitDx=0;exitDy=0;exitPerimeter=0;" parent="lFr_UAIBgHDYgoveQ9sL-49" source="lFr_UAIBgHDYgoveQ9sL-54" edge="1">
          <mxGeometry relative="1" as="geometry">
            <mxPoint x="294.85" y="210" as="targetPoint" />
            <mxPoint x="295.1" y="170" as="sourcePoint" />
            <Array as="points">
              <mxPoint x="295" y="191" />
            </Array>
          </mxGeometry>
        </mxCell>
        <mxCell id="lFr_UAIBgHDYgoveQ9sL-88" style="edgeStyle=orthogonalEdgeStyle;rounded=0;orthogonalLoop=1;jettySize=auto;html=1;endArrow=none;startFill=0;dashed=1;exitX=0.496;exitY=1.056;exitDx=0;exitDy=0;exitPerimeter=0;" parent="lFr_UAIBgHDYgoveQ9sL-49" edge="1">
          <mxGeometry relative="1" as="geometry">
            <mxPoint x="484.88" y="210" as="targetPoint" />
            <mxPoint x="485.03" y="163" as="sourcePoint" />
            <Array as="points">
              <mxPoint x="485.03" y="191" />
            </Array>
          </mxGeometry>
        </mxCell>
        <mxCell id="lFr_UAIBgHDYgoveQ9sL-89" style="edgeStyle=orthogonalEdgeStyle;rounded=0;orthogonalLoop=1;jettySize=auto;html=1;endArrow=none;startFill=0;dashed=1;exitX=0.496;exitY=1.056;exitDx=0;exitDy=0;exitPerimeter=0;" parent="lFr_UAIBgHDYgoveQ9sL-49" edge="1">
          <mxGeometry relative="1" as="geometry">
            <mxPoint x="684.8199999999999" y="210" as="targetPoint" />
            <mxPoint x="684.97" y="163" as="sourcePoint" />
            <Array as="points">
              <mxPoint x="684.97" y="191" />
            </Array>
          </mxGeometry>
        </mxCell>
        <mxCell id="lFr_UAIBgHDYgoveQ9sL-90" style="edgeStyle=orthogonalEdgeStyle;rounded=0;orthogonalLoop=1;jettySize=auto;html=1;endArrow=none;startFill=0;dashed=1;exitX=0.496;exitY=1.056;exitDx=0;exitDy=0;exitPerimeter=0;" parent="lFr_UAIBgHDYgoveQ9sL-49" edge="1">
          <mxGeometry relative="1" as="geometry">
            <mxPoint x="874.8199999999999" y="210" as="targetPoint" />
            <mxPoint x="874.97" y="163" as="sourcePoint" />
            <Array as="points">
              <mxPoint x="874.97" y="191" />
            </Array>
          </mxGeometry>
        </mxCell>
        <mxCell id="lFr_UAIBgHDYgoveQ9sL-107" value="sequence #2 Update products variant" style="swimlane;whiteSpace=wrap" parent="1" vertex="1">
          <mxGeometry x="1760" y="180" width="780" height="710" as="geometry" />
        </mxCell>
        <mxCell id="lFr_UAIBgHDYgoveQ9sL-108" style="edgeStyle=orthogonalEdgeStyle;rounded=0;orthogonalLoop=1;jettySize=auto;html=1;entryX=0;entryY=0.5;entryDx=0;entryDy=0;" parent="lFr_UAIBgHDYgoveQ9sL-107" edge="1">
          <mxGeometry relative="1" as="geometry">
            <Array as="points">
              <mxPoint x="60" y="489" />
              <mxPoint x="60" y="233" />
            </Array>
            <mxPoint x="150" y="233" as="targetPoint" />
          </mxGeometry>
        </mxCell>
        <mxCell id="lFr_UAIBgHDYgoveQ9sL-109" style="edgeStyle=orthogonalEdgeStyle;rounded=0;orthogonalLoop=1;jettySize=auto;html=1;endArrow=none;startFill=0;dashed=1;" parent="lFr_UAIBgHDYgoveQ9sL-107" edge="1">
          <mxGeometry relative="1" as="geometry">
            <mxPoint x="104.75" y="210" as="targetPoint" />
            <mxPoint x="105" y="170" as="sourcePoint" />
            <Array as="points">
              <mxPoint x="105" y="191" />
            </Array>
          </mxGeometry>
        </mxCell>
        <mxCell id="lFr_UAIBgHDYgoveQ9sL-110" value="Admin" style="shape=umlActor;verticalLabelPosition=bottom;verticalAlign=top;html=1;fillColor=#e1d5e7;strokeColor=#9673a6;" parent="lFr_UAIBgHDYgoveQ9sL-107" vertex="1">
          <mxGeometry x="90" y="90" width="30" height="60" as="geometry" />
        </mxCell>
        <mxCell id="lFr_UAIBgHDYgoveQ9sL-111" value="" style="html=1;points=[[0,0,0,0,5],[0,1,0,0,-5],[1,0,0,0,5],[1,1,0,0,-5]];perimeter=orthogonalPerimeter;outlineConnect=0;targetShapes=umlLifeline;portConstraint=eastwest;newEdgeStyle={&quot;curved&quot;:0,&quot;rounded&quot;:0};fillColor=#e1d5e7;strokeColor=#9673a6;" parent="lFr_UAIBgHDYgoveQ9sL-107" vertex="1">
          <mxGeometry x="100" y="210" width="10" height="450" as="geometry" />
        </mxCell>
        <mxCell id="lFr_UAIBgHDYgoveQ9sL-112" value="Frontend" style="html=1;whiteSpace=wrap;fillColor=#dae8fc;strokeColor=#6c8ebf;" parent="lFr_UAIBgHDYgoveQ9sL-107" vertex="1">
          <mxGeometry x="240" y="110" width="110" height="50" as="geometry" />
        </mxCell>
        <mxCell id="lFr_UAIBgHDYgoveQ9sL-113" value="API" style="html=1;whiteSpace=wrap;fillColor=#d5e8d4;strokeColor=#82b366;" parent="lFr_UAIBgHDYgoveQ9sL-107" vertex="1">
          <mxGeometry x="430" y="110" width="110" height="50" as="geometry" />
        </mxCell>
        <mxCell id="lFr_UAIBgHDYgoveQ9sL-114" value="Database" style="html=1;whiteSpace=wrap;fillColor=#ffe6cc;strokeColor=#d79b00;" parent="lFr_UAIBgHDYgoveQ9sL-107" vertex="1">
          <mxGeometry x="620" y="110" width="110" height="50" as="geometry" />
        </mxCell>
        <mxCell id="lFr_UAIBgHDYgoveQ9sL-115" value="" style="html=1;points=[[0,0,0,0,5],[0,1,0,0,-5],[1,0,0,0,5],[1,1,0,0,-5]];perimeter=orthogonalPerimeter;outlineConnect=0;targetShapes=umlLifeline;portConstraint=eastwest;newEdgeStyle={&quot;curved&quot;:0,&quot;rounded&quot;:0};fillColor=#dae8fc;strokeColor=#6c8ebf;" parent="lFr_UAIBgHDYgoveQ9sL-107" vertex="1">
          <mxGeometry x="290" y="210" width="10" height="450" as="geometry" />
        </mxCell>
        <mxCell id="lFr_UAIBgHDYgoveQ9sL-116" value="" style="html=1;points=[[0,0,0,0,5],[0,1,0,0,-5],[1,0,0,0,5],[1,1,0,0,-5]];perimeter=orthogonalPerimeter;outlineConnect=0;targetShapes=umlLifeline;portConstraint=eastwest;newEdgeStyle={&quot;curved&quot;:0,&quot;rounded&quot;:0};fillColor=#d5e8d4;strokeColor=#82b366;" parent="lFr_UAIBgHDYgoveQ9sL-107" vertex="1">
          <mxGeometry x="480" y="210" width="10" height="450" as="geometry" />
        </mxCell>
        <mxCell id="lFr_UAIBgHDYgoveQ9sL-117" value="" style="html=1;points=[[0,0,0,0,5],[0,1,0,0,-5],[1,0,0,0,5],[1,1,0,0,-5]];perimeter=orthogonalPerimeter;outlineConnect=0;targetShapes=umlLifeline;portConstraint=eastwest;newEdgeStyle={&quot;curved&quot;:0,&quot;rounded&quot;:0};fillColor=#ffe6cc;strokeColor=#d79b00;" parent="lFr_UAIBgHDYgoveQ9sL-107" vertex="1">
          <mxGeometry x="670" y="210" width="10" height="450" as="geometry" />
        </mxCell>
        <mxCell id="lFr_UAIBgHDYgoveQ9sL-118" value="Input the field that want to change" style="html=1;verticalAlign=bottom;endArrow=block;curved=0;rounded=0;" parent="lFr_UAIBgHDYgoveQ9sL-107" edge="1">
          <mxGeometry y="10" width="80" relative="1" as="geometry">
            <mxPoint x="110" y="290" as="sourcePoint" />
            <mxPoint x="290" y="290" as="targetPoint" />
            <mxPoint as="offset" />
            <Array as="points">
              <mxPoint x="200" y="290" />
            </Array>
          </mxGeometry>
        </mxCell>
        <mxCell id="lFr_UAIBgHDYgoveQ9sL-119" value="Tick on update product with sku" style="html=1;verticalAlign=bottom;endArrow=block;curved=0;rounded=0;" parent="lFr_UAIBgHDYgoveQ9sL-107" edge="1">
          <mxGeometry y="5" width="80" relative="1" as="geometry">
            <mxPoint x="110" y="330.00000000000006" as="sourcePoint" />
            <mxPoint x="290" y="330.00000000000006" as="targetPoint" />
            <mxPoint as="offset" />
          </mxGeometry>
        </mxCell>
        <mxCell id="lFr_UAIBgHDYgoveQ9sL-120" value="Show message dialog" style="html=1;verticalAlign=bottom;endArrow=block;curved=0;rounded=0;dashed=1;strokeWidth=1;" parent="lFr_UAIBgHDYgoveQ9sL-107" edge="1">
          <mxGeometry width="80" relative="1" as="geometry">
            <mxPoint x="290" y="610" as="sourcePoint" />
            <mxPoint x="110" y="610" as="targetPoint" />
            <mxPoint as="offset" />
          </mxGeometry>
        </mxCell>
        <mxCell id="lFr_UAIBgHDYgoveQ9sL-121" style="edgeStyle=orthogonalEdgeStyle;rounded=0;orthogonalLoop=1;jettySize=auto;html=1;endArrow=none;startFill=0;dashed=1;exitX=0.496;exitY=1.056;exitDx=0;exitDy=0;exitPerimeter=0;" parent="lFr_UAIBgHDYgoveQ9sL-107" source="lFr_UAIBgHDYgoveQ9sL-112" edge="1">
          <mxGeometry relative="1" as="geometry">
            <mxPoint x="294.85" y="210" as="targetPoint" />
            <mxPoint x="295.1" y="170" as="sourcePoint" />
            <Array as="points">
              <mxPoint x="295" y="191" />
            </Array>
          </mxGeometry>
        </mxCell>
        <mxCell id="lFr_UAIBgHDYgoveQ9sL-122" style="edgeStyle=orthogonalEdgeStyle;rounded=0;orthogonalLoop=1;jettySize=auto;html=1;endArrow=none;startFill=0;dashed=1;exitX=0.496;exitY=1.056;exitDx=0;exitDy=0;exitPerimeter=0;" parent="lFr_UAIBgHDYgoveQ9sL-107" edge="1">
          <mxGeometry relative="1" as="geometry">
            <mxPoint x="484.81999999999994" y="210" as="targetPoint" />
            <mxPoint x="484.97" y="163" as="sourcePoint" />
            <Array as="points">
              <mxPoint x="484.97" y="191" />
            </Array>
          </mxGeometry>
        </mxCell>
        <mxCell id="lFr_UAIBgHDYgoveQ9sL-123" style="edgeStyle=orthogonalEdgeStyle;rounded=0;orthogonalLoop=1;jettySize=auto;html=1;endArrow=none;startFill=0;dashed=1;exitX=0.496;exitY=1.056;exitDx=0;exitDy=0;exitPerimeter=0;" parent="lFr_UAIBgHDYgoveQ9sL-107" edge="1">
          <mxGeometry relative="1" as="geometry">
            <mxPoint x="674.8199999999999" y="210" as="targetPoint" />
            <mxPoint x="674.97" y="163" as="sourcePoint" />
            <Array as="points">
              <mxPoint x="674.97" y="191" />
            </Array>
          </mxGeometry>
        </mxCell>
        <mxCell id="lFr_UAIBgHDYgoveQ9sL-124" value="Click on products variant taps" style="html=1;verticalAlign=bottom;endArrow=block;curved=0;rounded=0;" parent="lFr_UAIBgHDYgoveQ9sL-107" edge="1">
          <mxGeometry y="10" width="80" relative="1" as="geometry">
            <mxPoint x="110" y="250" as="sourcePoint" />
            <mxPoint x="290" y="250" as="targetPoint" />
            <mxPoint as="offset" />
            <Array as="points">
              <mxPoint x="200" y="250" />
            </Array>
          </mxGeometry>
        </mxCell>
        <mxCell id="lFr_UAIBgHDYgoveQ9sL-125" value="Click on update button" style="html=1;verticalAlign=bottom;endArrow=block;curved=0;rounded=0;" parent="lFr_UAIBgHDYgoveQ9sL-107" edge="1">
          <mxGeometry y="5" width="80" relative="1" as="geometry">
            <mxPoint x="110" y="370" as="sourcePoint" />
            <mxPoint x="290" y="370" as="targetPoint" />
            <mxPoint as="offset" />
          </mxGeometry>
        </mxCell>
        <mxCell id="lFr_UAIBgHDYgoveQ9sL-126" value="update all products with&amp;nbsp;&lt;div&gt;the same sku&lt;/div&gt;" style="html=1;verticalAlign=bottom;endArrow=block;curved=0;rounded=0;" parent="lFr_UAIBgHDYgoveQ9sL-107" edge="1">
          <mxGeometry width="80" relative="1" as="geometry">
            <mxPoint x="490" y="450" as="sourcePoint" />
            <mxPoint x="670" y="450" as="targetPoint" />
            <mxPoint as="offset" />
          </mxGeometry>
        </mxCell>
        <mxCell id="lFr_UAIBgHDYgoveQ9sL-127" value="alt" style="shape=umlFrame;whiteSpace=wrap;html=1;pointerEvents=0;recursiveResize=0;container=1;collapsible=0;width=40;height=20;fontSize=9;" parent="lFr_UAIBgHDYgoveQ9sL-107" vertex="1">
          <mxGeometry x="260" y="380" width="450" height="190" as="geometry" />
        </mxCell>
        <mxCell id="lFr_UAIBgHDYgoveQ9sL-128" value="[valid information]" style="text;html=1;fontSize=9;" parent="lFr_UAIBgHDYgoveQ9sL-127" vertex="1">
          <mxGeometry width="100" height="20" relative="1" as="geometry">
            <mxPoint x="41" as="offset" />
          </mxGeometry>
        </mxCell>
        <mxCell id="lFr_UAIBgHDYgoveQ9sL-129" value="" style="line;strokeWidth=1;labelPosition=center;verticalLabelPosition=bottom;align=left;verticalAlign=top;spacingLeft=20;spacingTop=15;html=1;whiteSpace=wrap;" parent="lFr_UAIBgHDYgoveQ9sL-127" vertex="1">
          <mxGeometry y="125" width="450" height="10" as="geometry" />
        </mxCell>
        <mxCell id="lFr_UAIBgHDYgoveQ9sL-130" value="&lt;span style=&quot;font-size: 9px; text-align: left; text-wrap-mode: nowrap;&quot;&gt;[invalid information]&lt;/span&gt;" style="text;html=1;align=center;verticalAlign=middle;whiteSpace=wrap;rounded=0;fontSize=8;" parent="lFr_UAIBgHDYgoveQ9sL-127" vertex="1">
          <mxGeometry x="50" y="125" width="60" height="30" as="geometry" />
        </mxCell>
        <mxCell id="lFr_UAIBgHDYgoveQ9sL-131" value="&lt;font style=&quot;&quot;&gt;reponse success message&lt;/font&gt;" style="html=1;verticalAlign=bottom;endArrow=block;curved=0;rounded=0;dashed=1;strokeWidth=1;fontColor=#00CC00;strokeColor=#00CC00;" parent="lFr_UAIBgHDYgoveQ9sL-127" edge="1">
          <mxGeometry width="80" relative="1" as="geometry">
            <mxPoint x="220" y="100" as="sourcePoint" />
            <mxPoint x="40" y="100" as="targetPoint" />
            <mxPoint as="offset" />
          </mxGeometry>
        </mxCell>
        <mxCell id="lFr_UAIBgHDYgoveQ9sL-132" value="&lt;font style=&quot;color: rgb(255, 51, 51);&quot;&gt;reponse error message&lt;/font&gt;" style="html=1;verticalAlign=bottom;endArrow=block;curved=0;rounded=0;dashed=1;strokeWidth=1;fontColor=#00CC00;strokeColor=#FF3333;" parent="lFr_UAIBgHDYgoveQ9sL-127" edge="1">
          <mxGeometry x="0.0032" width="80" relative="1" as="geometry">
            <mxPoint x="410" y="170.00000000000006" as="sourcePoint" />
            <mxPoint x="40" y="170" as="targetPoint" />
            <mxPoint as="offset" />
          </mxGeometry>
        </mxCell>
        <mxCell id="lFr_UAIBgHDYgoveQ9sL-133" value="Request with data to update&amp;nbsp;" style="html=1;verticalAlign=bottom;endArrow=block;curved=0;rounded=0;" parent="lFr_UAIBgHDYgoveQ9sL-127" edge="1">
          <mxGeometry width="80" relative="1" as="geometry">
            <mxPoint x="40" y="40" as="sourcePoint" />
            <mxPoint x="220" y="40" as="targetPoint" />
            <mxPoint as="offset" />
          </mxGeometry>
        </mxCell>
        <mxCell id="lFr_UAIBgHDYgoveQ9sL-134" value="sequence #3 View products order by distance" style="swimlane;whiteSpace=wrap" parent="1" vertex="1">
          <mxGeometry x="950" y="930" width="850" height="980" as="geometry" />
        </mxCell>
        <mxCell id="lFr_UAIBgHDYgoveQ9sL-135" style="edgeStyle=orthogonalEdgeStyle;rounded=0;orthogonalLoop=1;jettySize=auto;html=1;entryX=0;entryY=0.5;entryDx=0;entryDy=0;" parent="lFr_UAIBgHDYgoveQ9sL-134" edge="1">
          <mxGeometry relative="1" as="geometry">
            <Array as="points">
              <mxPoint x="60" y="489" />
              <mxPoint x="60" y="233" />
            </Array>
            <mxPoint x="150" y="233" as="targetPoint" />
          </mxGeometry>
        </mxCell>
        <mxCell id="lFr_UAIBgHDYgoveQ9sL-136" style="edgeStyle=orthogonalEdgeStyle;rounded=0;orthogonalLoop=1;jettySize=auto;html=1;endArrow=none;startFill=0;dashed=1;" parent="lFr_UAIBgHDYgoveQ9sL-134" edge="1">
          <mxGeometry relative="1" as="geometry">
            <mxPoint x="104.75" y="210" as="targetPoint" />
            <mxPoint x="105" y="170" as="sourcePoint" />
            <Array as="points">
              <mxPoint x="105" y="191" />
            </Array>
          </mxGeometry>
        </mxCell>
        <mxCell id="lFr_UAIBgHDYgoveQ9sL-137" value="User" style="shape=umlActor;verticalLabelPosition=bottom;verticalAlign=top;html=1;fillColor=#e1d5e7;strokeColor=#9673a6;" parent="lFr_UAIBgHDYgoveQ9sL-134" vertex="1">
          <mxGeometry x="90" y="90" width="30" height="60" as="geometry" />
        </mxCell>
        <mxCell id="lFr_UAIBgHDYgoveQ9sL-138" value="" style="html=1;points=[[0,0,0,0,5],[0,1,0,0,-5],[1,0,0,0,5],[1,1,0,0,-5]];perimeter=orthogonalPerimeter;outlineConnect=0;targetShapes=umlLifeline;portConstraint=eastwest;newEdgeStyle={&quot;curved&quot;:0,&quot;rounded&quot;:0};fillColor=#e1d5e7;strokeColor=#9673a6;" parent="lFr_UAIBgHDYgoveQ9sL-134" vertex="1">
          <mxGeometry x="100" y="210" width="10" height="740" as="geometry" />
        </mxCell>
        <mxCell id="lFr_UAIBgHDYgoveQ9sL-139" value="Mobile App" style="html=1;whiteSpace=wrap;fillColor=#dae8fc;strokeColor=#6c8ebf;" parent="lFr_UAIBgHDYgoveQ9sL-134" vertex="1">
          <mxGeometry x="240" y="110" width="110" height="50" as="geometry" />
        </mxCell>
        <mxCell id="lFr_UAIBgHDYgoveQ9sL-140" value="API" style="html=1;whiteSpace=wrap;fillColor=#d5e8d4;strokeColor=#82b366;" parent="lFr_UAIBgHDYgoveQ9sL-134" vertex="1">
          <mxGeometry x="430" y="110" width="110" height="50" as="geometry" />
        </mxCell>
        <mxCell id="lFr_UAIBgHDYgoveQ9sL-141" value="Database" style="html=1;whiteSpace=wrap;fillColor=#ffe6cc;strokeColor=#d79b00;" parent="lFr_UAIBgHDYgoveQ9sL-134" vertex="1">
          <mxGeometry x="620" y="110" width="110" height="50" as="geometry" />
        </mxCell>
        <mxCell id="lFr_UAIBgHDYgoveQ9sL-142" value="" style="html=1;points=[[0,0,0,0,5],[0,1,0,0,-5],[1,0,0,0,5],[1,1,0,0,-5]];perimeter=orthogonalPerimeter;outlineConnect=0;targetShapes=umlLifeline;portConstraint=eastwest;newEdgeStyle={&quot;curved&quot;:0,&quot;rounded&quot;:0};fillColor=#dae8fc;strokeColor=#6c8ebf;" parent="lFr_UAIBgHDYgoveQ9sL-134" vertex="1">
          <mxGeometry x="290" y="210" width="10" height="740" as="geometry" />
        </mxCell>
        <mxCell id="lFr_UAIBgHDYgoveQ9sL-143" value="" style="html=1;points=[[0,0,0,0,5],[0,1,0,0,-5],[1,0,0,0,5],[1,1,0,0,-5]];perimeter=orthogonalPerimeter;outlineConnect=0;targetShapes=umlLifeline;portConstraint=eastwest;newEdgeStyle={&quot;curved&quot;:0,&quot;rounded&quot;:0};fillColor=#d5e8d4;strokeColor=#82b366;" parent="lFr_UAIBgHDYgoveQ9sL-134" vertex="1">
          <mxGeometry x="480" y="210" width="10" height="740" as="geometry" />
        </mxCell>
        <mxCell id="lFr_UAIBgHDYgoveQ9sL-144" value="" style="html=1;points=[[0,0,0,0,5],[0,1,0,0,-5],[1,0,0,0,5],[1,1,0,0,-5]];perimeter=orthogonalPerimeter;outlineConnect=0;targetShapes=umlLifeline;portConstraint=eastwest;newEdgeStyle={&quot;curved&quot;:0,&quot;rounded&quot;:0};fillColor=#ffe6cc;strokeColor=#d79b00;" parent="lFr_UAIBgHDYgoveQ9sL-134" vertex="1">
          <mxGeometry x="670" y="210" width="10" height="740" as="geometry" />
        </mxCell>
        <mxCell id="lFr_UAIBgHDYgoveQ9sL-147" value="response with product" style="html=1;verticalAlign=bottom;endArrow=block;curved=0;rounded=0;dashed=1;strokeWidth=1;" parent="lFr_UAIBgHDYgoveQ9sL-134" edge="1">
          <mxGeometry width="80" relative="1" as="geometry">
            <mxPoint x="670" y="620" as="sourcePoint" />
            <mxPoint x="490" y="620" as="targetPoint" />
            <mxPoint as="offset" />
          </mxGeometry>
        </mxCell>
        <mxCell id="lFr_UAIBgHDYgoveQ9sL-148" style="edgeStyle=orthogonalEdgeStyle;rounded=0;orthogonalLoop=1;jettySize=auto;html=1;endArrow=none;startFill=0;dashed=1;exitX=0.496;exitY=1.056;exitDx=0;exitDy=0;exitPerimeter=0;" parent="lFr_UAIBgHDYgoveQ9sL-134" source="lFr_UAIBgHDYgoveQ9sL-139" edge="1">
          <mxGeometry relative="1" as="geometry">
            <mxPoint x="294.85" y="210" as="targetPoint" />
            <mxPoint x="295.1" y="170" as="sourcePoint" />
            <Array as="points">
              <mxPoint x="295" y="191" />
            </Array>
          </mxGeometry>
        </mxCell>
        <mxCell id="lFr_UAIBgHDYgoveQ9sL-149" style="edgeStyle=orthogonalEdgeStyle;rounded=0;orthogonalLoop=1;jettySize=auto;html=1;endArrow=none;startFill=0;dashed=1;exitX=0.496;exitY=1.056;exitDx=0;exitDy=0;exitPerimeter=0;" parent="lFr_UAIBgHDYgoveQ9sL-134" edge="1">
          <mxGeometry relative="1" as="geometry">
            <mxPoint x="484.81999999999994" y="210" as="targetPoint" />
            <mxPoint x="484.97" y="163" as="sourcePoint" />
            <Array as="points">
              <mxPoint x="484.97" y="191" />
            </Array>
          </mxGeometry>
        </mxCell>
        <mxCell id="lFr_UAIBgHDYgoveQ9sL-150" style="edgeStyle=orthogonalEdgeStyle;rounded=0;orthogonalLoop=1;jettySize=auto;html=1;endArrow=none;startFill=0;dashed=1;exitX=0.496;exitY=1.056;exitDx=0;exitDy=0;exitPerimeter=0;" parent="lFr_UAIBgHDYgoveQ9sL-134" edge="1">
          <mxGeometry relative="1" as="geometry">
            <mxPoint x="674.8199999999999" y="210" as="targetPoint" />
            <mxPoint x="674.97" y="163" as="sourcePoint" />
            <Array as="points">
              <mxPoint x="674.97" y="191" />
            </Array>
          </mxGeometry>
        </mxCell>
        <mxCell id="lFr_UAIBgHDYgoveQ9sL-151" value="Open the on the home screen" style="html=1;verticalAlign=bottom;endArrow=block;curved=0;rounded=0;" parent="lFr_UAIBgHDYgoveQ9sL-134" edge="1">
          <mxGeometry y="10" width="80" relative="1" as="geometry">
            <mxPoint x="110" y="250" as="sourcePoint" />
            <mxPoint x="290" y="250" as="targetPoint" />
            <mxPoint as="offset" />
            <Array as="points">
              <mxPoint x="200" y="250" />
            </Array>
          </mxGeometry>
        </mxCell>
        <mxCell id="lFr_UAIBgHDYgoveQ9sL-154" value="alt" style="shape=umlFrame;whiteSpace=wrap;html=1;pointerEvents=0;recursiveResize=0;container=1;collapsible=0;width=40;height=20;fontSize=9;" parent="lFr_UAIBgHDYgoveQ9sL-134" vertex="1">
          <mxGeometry x="260" y="300" width="440" height="190" as="geometry" />
        </mxCell>
        <mxCell id="lFr_UAIBgHDYgoveQ9sL-155" value="[valid if lat/lng are pass]" style="text;html=1;fontSize=9;" parent="lFr_UAIBgHDYgoveQ9sL-154" vertex="1">
          <mxGeometry width="100" height="20" relative="1" as="geometry">
            <mxPoint x="41" as="offset" />
          </mxGeometry>
        </mxCell>
        <mxCell id="lFr_UAIBgHDYgoveQ9sL-156" value="" style="line;strokeWidth=1;labelPosition=center;verticalLabelPosition=bottom;align=left;verticalAlign=top;spacingLeft=20;spacingTop=15;html=1;whiteSpace=wrap;" parent="lFr_UAIBgHDYgoveQ9sL-154" vertex="1">
          <mxGeometry y="125" width="440" height="10" as="geometry" />
        </mxCell>
        <mxCell id="lFr_UAIBgHDYgoveQ9sL-157" value="&lt;span style=&quot;font-size: 9px; text-align: left; text-wrap-mode: nowrap;&quot;&gt;[invalid information]&lt;/span&gt;" style="text;html=1;align=center;verticalAlign=middle;whiteSpace=wrap;rounded=0;fontSize=8;" parent="lFr_UAIBgHDYgoveQ9sL-154" vertex="1">
          <mxGeometry x="50" y="125" width="60" height="30" as="geometry" />
        </mxCell>
        <mxCell id="lFr_UAIBgHDYgoveQ9sL-159" value="&lt;font style=&quot;color: rgb(255, 51, 51);&quot;&gt;lat/lng is require&lt;/font&gt;" style="html=1;verticalAlign=bottom;endArrow=block;curved=0;rounded=0;dashed=1;strokeWidth=1;fontColor=#00CC00;strokeColor=#FF3333;" parent="lFr_UAIBgHDYgoveQ9sL-154" edge="1">
          <mxGeometry x="0.0032" width="80" relative="1" as="geometry">
            <mxPoint x="220" y="170" as="sourcePoint" />
            <mxPoint x="40" y="170" as="targetPoint" />
            <mxPoint as="offset" />
          </mxGeometry>
        </mxCell>
        <mxCell id="lFr_UAIBgHDYgoveQ9sL-160" value="Request channels&amp;nbsp;&lt;div&gt;order by distance&amp;nbsp;&lt;/div&gt;" style="html=1;verticalAlign=bottom;endArrow=block;curved=0;rounded=0;" parent="lFr_UAIBgHDYgoveQ9sL-154" edge="1">
          <mxGeometry width="80" relative="1" as="geometry">
            <mxPoint x="40" y="60" as="sourcePoint" />
            <mxPoint x="220" y="60" as="targetPoint" />
            <mxPoint as="offset" />
          </mxGeometry>
        </mxCell>
        <mxCell id="lFr_UAIBgHDYgoveQ9sL-163" value="pass 6 channels id&amp;nbsp;&lt;div&gt;to get products&lt;/div&gt;" style="html=1;verticalAlign=bottom;endArrow=block;curved=0;rounded=0;" parent="lFr_UAIBgHDYgoveQ9sL-134" edge="1">
          <mxGeometry width="80" relative="1" as="geometry">
            <mxPoint x="300" y="570" as="sourcePoint" />
            <mxPoint x="480" y="570" as="targetPoint" />
            <mxPoint as="offset" />
          </mxGeometry>
        </mxCell>
        <mxCell id="lFr_UAIBgHDYgoveQ9sL-164" value="loop" style="shape=umlFrame;whiteSpace=wrap;html=1;pointerEvents=0;width=40;height=20;fontSize=8;" parent="lFr_UAIBgHDYgoveQ9sL-134" vertex="1">
          <mxGeometry x="50" y="260" width="690" height="460" as="geometry" />
        </mxCell>
        <mxCell id="lFr_UAIBgHDYgoveQ9sL-165" value="[until no more channels id]" style="text;html=1;align=center;verticalAlign=middle;whiteSpace=wrap;rounded=0;fontSize=8;" parent="lFr_UAIBgHDYgoveQ9sL-134" vertex="1">
          <mxGeometry x="70" y="260" width="150" height="30" as="geometry" />
        </mxCell>
        <mxCell id="lFr_UAIBgHDYgoveQ9sL-166" value="query product by channels id" style="html=1;verticalAlign=bottom;endArrow=block;curved=0;rounded=0;" parent="lFr_UAIBgHDYgoveQ9sL-134" edge="1">
          <mxGeometry width="80" relative="1" as="geometry">
            <mxPoint x="490" y="590" as="sourcePoint" />
            <mxPoint x="670" y="590" as="targetPoint" />
            <mxPoint as="offset" />
          </mxGeometry>
        </mxCell>
        <mxCell id="lFr_UAIBgHDYgoveQ9sL-167" value="response with product" style="html=1;verticalAlign=bottom;endArrow=block;curved=0;rounded=0;dashed=1;strokeWidth=1;" parent="lFr_UAIBgHDYgoveQ9sL-134" edge="1">
          <mxGeometry width="80" relative="1" as="geometry">
            <mxPoint x="480" y="640" as="sourcePoint" />
            <mxPoint x="300" y="640" as="targetPoint" />
            <mxPoint as="offset" />
          </mxGeometry>
        </mxCell>
        <mxCell id="lFr_UAIBgHDYgoveQ9sL-177" value="loop" style="shape=umlFrame;whiteSpace=wrap;html=1;pointerEvents=0;width=40;height=20;fontSize=8;" parent="lFr_UAIBgHDYgoveQ9sL-134" vertex="1">
          <mxGeometry x="260" y="510" width="450" height="150" as="geometry" />
        </mxCell>
        <mxCell id="lFr_UAIBgHDYgoveQ9sL-178" value="[until no more products in those channels]" style="text;html=1;align=center;verticalAlign=middle;whiteSpace=wrap;rounded=0;fontSize=8;" parent="lFr_UAIBgHDYgoveQ9sL-134" vertex="1">
          <mxGeometry x="290" y="510" width="170" height="20" as="geometry" />
        </mxCell>
        <mxCell id="lFr_UAIBgHDYgoveQ9sL-179" value="loop" style="shape=umlFrame;whiteSpace=wrap;html=1;pointerEvents=0;width=40;height=20;fontSize=8;" parent="lFr_UAIBgHDYgoveQ9sL-134" vertex="1">
          <mxGeometry x="50" y="740" width="690" height="180" as="geometry" />
        </mxCell>
        <mxCell id="lFr_UAIBgHDYgoveQ9sL-180" value="[until no more products]" style="text;html=1;align=center;verticalAlign=middle;whiteSpace=wrap;rounded=0;fontSize=8;" parent="lFr_UAIBgHDYgoveQ9sL-134" vertex="1">
          <mxGeometry x="50" y="740" width="170" height="20" as="geometry" />
        </mxCell>
        <mxCell id="lFr_UAIBgHDYgoveQ9sL-181" value="render product for&amp;nbsp;&lt;div&gt;user to view&lt;/div&gt;" style="html=1;verticalAlign=bottom;endArrow=block;curved=0;rounded=0;dashed=1;strokeWidth=1;" parent="lFr_UAIBgHDYgoveQ9sL-134" edge="1">
          <mxGeometry width="80" relative="1" as="geometry">
            <mxPoint x="290" y="670" as="sourcePoint" />
            <mxPoint x="110" y="670" as="targetPoint" />
            <mxPoint as="offset" />
          </mxGeometry>
        </mxCell>
        <mxCell id="lFr_UAIBgHDYgoveQ9sL-182" value="Browse the products" style="html=1;verticalAlign=bottom;endArrow=block;curved=0;rounded=0;" parent="lFr_UAIBgHDYgoveQ9sL-134" edge="1">
          <mxGeometry width="80" relative="1" as="geometry">
            <mxPoint x="110" y="700" as="sourcePoint" />
            <mxPoint x="290" y="700" as="targetPoint" />
            <mxPoint as="offset" />
            <Array as="points">
              <mxPoint x="200" y="700" />
            </Array>
          </mxGeometry>
        </mxCell>
        <mxCell id="lFr_UAIBgHDYgoveQ9sL-183" value="Browse the products" style="html=1;verticalAlign=bottom;endArrow=block;curved=0;rounded=0;" parent="lFr_UAIBgHDYgoveQ9sL-134" edge="1">
          <mxGeometry width="80" relative="1" as="geometry">
            <mxPoint x="110" y="780" as="sourcePoint" />
            <mxPoint x="290" y="780" as="targetPoint" />
            <mxPoint as="offset" />
            <Array as="points">
              <mxPoint x="200" y="780" />
            </Array>
          </mxGeometry>
        </mxCell>
        <mxCell id="lFr_UAIBgHDYgoveQ9sL-184" value="&lt;span style=&quot;background-color: light-dark(#ffffff, var(--ge-dark-color, #121212)); color: light-dark(rgb(0, 0, 0), rgb(255, 255, 255));&quot;&gt;get products&lt;/span&gt;" style="html=1;verticalAlign=bottom;endArrow=block;curved=0;rounded=0;" parent="lFr_UAIBgHDYgoveQ9sL-134" edge="1">
          <mxGeometry width="80" relative="1" as="geometry">
            <mxPoint x="300" y="790" as="sourcePoint" />
            <mxPoint x="480" y="790" as="targetPoint" />
            <mxPoint as="offset" />
          </mxGeometry>
        </mxCell>
        <mxCell id="lFr_UAIBgHDYgoveQ9sL-185" value="query product randomly" style="html=1;verticalAlign=bottom;endArrow=block;curved=0;rounded=0;" parent="lFr_UAIBgHDYgoveQ9sL-134" edge="1">
          <mxGeometry width="80" relative="1" as="geometry">
            <mxPoint x="490" y="814.5" as="sourcePoint" />
            <mxPoint x="670" y="814.5" as="targetPoint" />
            <mxPoint as="offset" />
          </mxGeometry>
        </mxCell>
        <mxCell id="lFr_UAIBgHDYgoveQ9sL-186" value="response with product" style="html=1;verticalAlign=bottom;endArrow=block;curved=0;rounded=0;dashed=1;strokeWidth=1;" parent="lFr_UAIBgHDYgoveQ9sL-134" edge="1">
          <mxGeometry width="80" relative="1" as="geometry">
            <mxPoint x="670" y="840" as="sourcePoint" />
            <mxPoint x="490" y="840" as="targetPoint" />
            <mxPoint as="offset" />
          </mxGeometry>
        </mxCell>
        <mxCell id="lFr_UAIBgHDYgoveQ9sL-187" value="response with product" style="html=1;verticalAlign=bottom;endArrow=block;curved=0;rounded=0;dashed=1;strokeWidth=1;" parent="lFr_UAIBgHDYgoveQ9sL-134" edge="1">
          <mxGeometry width="80" relative="1" as="geometry">
            <mxPoint x="480" y="860" as="sourcePoint" />
            <mxPoint x="300" y="860" as="targetPoint" />
            <mxPoint as="offset" />
          </mxGeometry>
        </mxCell>
        <mxCell id="lFr_UAIBgHDYgoveQ9sL-188" value="render product for&amp;nbsp;&lt;div&gt;user to view&lt;/div&gt;" style="html=1;verticalAlign=bottom;endArrow=block;curved=0;rounded=0;dashed=1;strokeWidth=1;" parent="lFr_UAIBgHDYgoveQ9sL-134" edge="1">
          <mxGeometry width="80" relative="1" as="geometry">
            <mxPoint x="290" y="889" as="sourcePoint" />
            <mxPoint x="110" y="889" as="targetPoint" />
            <mxPoint as="offset" />
          </mxGeometry>
        </mxCell>
        <mxCell id="lFr_UAIBgHDYgoveQ9sL-223" value="query channels id" style="html=1;verticalAlign=bottom;endArrow=block;curved=0;rounded=0;" parent="lFr_UAIBgHDYgoveQ9sL-134" edge="1">
          <mxGeometry width="80" relative="1" as="geometry">
            <mxPoint x="490" y="380" as="sourcePoint" />
            <mxPoint x="670" y="380" as="targetPoint" />
            <mxPoint as="offset" />
          </mxGeometry>
        </mxCell>
        <mxCell id="lFr_UAIBgHDYgoveQ9sL-158" value="&lt;font style=&quot;&quot;&gt;return channels id&amp;nbsp;&lt;/font&gt;&lt;div&gt;&lt;font style=&quot;&quot;&gt;order by distance&lt;/font&gt;&lt;/div&gt;" style="html=1;verticalAlign=bottom;endArrow=block;curved=0;rounded=0;dashed=1;strokeWidth=1;fontColor=#00CC00;strokeColor=#00CC00;" parent="lFr_UAIBgHDYgoveQ9sL-134" edge="1">
          <mxGeometry width="80" relative="1" as="geometry">
            <mxPoint x="480" y="410" as="sourcePoint" />
            <mxPoint x="300" y="410" as="targetPoint" />
            <mxPoint as="offset" />
          </mxGeometry>
        </mxCell>
        <mxCell id="lFr_UAIBgHDYgoveQ9sL-225" value="response channels id" style="html=1;verticalAlign=bottom;endArrow=block;curved=0;rounded=0;dashed=1;strokeWidth=1;" parent="lFr_UAIBgHDYgoveQ9sL-134" edge="1">
          <mxGeometry width="80" relative="1" as="geometry">
            <mxPoint x="670" y="400" as="sourcePoint" />
            <mxPoint x="490" y="400" as="targetPoint" />
            <mxPoint as="offset" />
          </mxGeometry>
        </mxCell>
        <mxCell id="lFr_UAIBgHDYgoveQ9sL-189" value="sequence #4 Browse channels by distance" style="swimlane;whiteSpace=wrap" parent="1" vertex="1">
          <mxGeometry x="1840" y="930" width="780" height="710" as="geometry" />
        </mxCell>
        <mxCell id="lFr_UAIBgHDYgoveQ9sL-190" style="edgeStyle=orthogonalEdgeStyle;rounded=0;orthogonalLoop=1;jettySize=auto;html=1;entryX=0;entryY=0.5;entryDx=0;entryDy=0;" parent="lFr_UAIBgHDYgoveQ9sL-189" edge="1">
          <mxGeometry relative="1" as="geometry">
            <Array as="points">
              <mxPoint x="60" y="489" />
              <mxPoint x="60" y="233" />
            </Array>
            <mxPoint x="150" y="233" as="targetPoint" />
          </mxGeometry>
        </mxCell>
        <mxCell id="lFr_UAIBgHDYgoveQ9sL-191" style="edgeStyle=orthogonalEdgeStyle;rounded=0;orthogonalLoop=1;jettySize=auto;html=1;endArrow=none;startFill=0;dashed=1;" parent="lFr_UAIBgHDYgoveQ9sL-189" edge="1">
          <mxGeometry relative="1" as="geometry">
            <mxPoint x="104.75" y="210" as="targetPoint" />
            <mxPoint x="105" y="170" as="sourcePoint" />
            <Array as="points">
              <mxPoint x="105" y="191" />
            </Array>
          </mxGeometry>
        </mxCell>
        <mxCell id="lFr_UAIBgHDYgoveQ9sL-192" value="User" style="shape=umlActor;verticalLabelPosition=bottom;verticalAlign=top;html=1;fillColor=#e1d5e7;strokeColor=#9673a6;" parent="lFr_UAIBgHDYgoveQ9sL-189" vertex="1">
          <mxGeometry x="90" y="90" width="30" height="60" as="geometry" />
        </mxCell>
        <mxCell id="lFr_UAIBgHDYgoveQ9sL-193" value="" style="html=1;points=[[0,0,0,0,5],[0,1,0,0,-5],[1,0,0,0,5],[1,1,0,0,-5]];perimeter=orthogonalPerimeter;outlineConnect=0;targetShapes=umlLifeline;portConstraint=eastwest;newEdgeStyle={&quot;curved&quot;:0,&quot;rounded&quot;:0};fillColor=#e1d5e7;strokeColor=#9673a6;" parent="lFr_UAIBgHDYgoveQ9sL-189" vertex="1">
          <mxGeometry x="100" y="210" width="10" height="450" as="geometry" />
        </mxCell>
        <mxCell id="lFr_UAIBgHDYgoveQ9sL-194" value="Mobile App" style="html=1;whiteSpace=wrap;fillColor=#dae8fc;strokeColor=#6c8ebf;" parent="lFr_UAIBgHDYgoveQ9sL-189" vertex="1">
          <mxGeometry x="240" y="110" width="110" height="50" as="geometry" />
        </mxCell>
        <mxCell id="lFr_UAIBgHDYgoveQ9sL-195" value="API" style="html=1;whiteSpace=wrap;fillColor=#d5e8d4;strokeColor=#82b366;" parent="lFr_UAIBgHDYgoveQ9sL-189" vertex="1">
          <mxGeometry x="430" y="110" width="110" height="50" as="geometry" />
        </mxCell>
        <mxCell id="lFr_UAIBgHDYgoveQ9sL-196" value="Database" style="html=1;whiteSpace=wrap;fillColor=#ffe6cc;strokeColor=#d79b00;" parent="lFr_UAIBgHDYgoveQ9sL-189" vertex="1">
          <mxGeometry x="620" y="110" width="110" height="50" as="geometry" />
        </mxCell>
        <mxCell id="lFr_UAIBgHDYgoveQ9sL-197" value="" style="html=1;points=[[0,0,0,0,5],[0,1,0,0,-5],[1,0,0,0,5],[1,1,0,0,-5]];perimeter=orthogonalPerimeter;outlineConnect=0;targetShapes=umlLifeline;portConstraint=eastwest;newEdgeStyle={&quot;curved&quot;:0,&quot;rounded&quot;:0};fillColor=#dae8fc;strokeColor=#6c8ebf;" parent="lFr_UAIBgHDYgoveQ9sL-189" vertex="1">
          <mxGeometry x="290" y="210" width="10" height="450" as="geometry" />
        </mxCell>
        <mxCell id="lFr_UAIBgHDYgoveQ9sL-198" value="" style="html=1;points=[[0,0,0,0,5],[0,1,0,0,-5],[1,0,0,0,5],[1,1,0,0,-5]];perimeter=orthogonalPerimeter;outlineConnect=0;targetShapes=umlLifeline;portConstraint=eastwest;newEdgeStyle={&quot;curved&quot;:0,&quot;rounded&quot;:0};fillColor=#d5e8d4;strokeColor=#82b366;" parent="lFr_UAIBgHDYgoveQ9sL-189" vertex="1">
          <mxGeometry x="480" y="210" width="10" height="450" as="geometry" />
        </mxCell>
        <mxCell id="lFr_UAIBgHDYgoveQ9sL-199" value="" style="html=1;points=[[0,0,0,0,5],[0,1,0,0,-5],[1,0,0,0,5],[1,1,0,0,-5]];perimeter=orthogonalPerimeter;outlineConnect=0;targetShapes=umlLifeline;portConstraint=eastwest;newEdgeStyle={&quot;curved&quot;:0,&quot;rounded&quot;:0};fillColor=#ffe6cc;strokeColor=#d79b00;" parent="lFr_UAIBgHDYgoveQ9sL-189" vertex="1">
          <mxGeometry x="670" y="210" width="10" height="450" as="geometry" />
        </mxCell>
        <mxCell id="lFr_UAIBgHDYgoveQ9sL-202" value="details on the screen" style="html=1;verticalAlign=bottom;endArrow=block;curved=0;rounded=0;dashed=1;strokeWidth=1;" parent="lFr_UAIBgHDYgoveQ9sL-189" edge="1">
          <mxGeometry width="80" relative="1" as="geometry">
            <mxPoint x="290" y="550" as="sourcePoint" />
            <mxPoint x="110" y="550" as="targetPoint" />
            <mxPoint as="offset" />
          </mxGeometry>
        </mxCell>
        <mxCell id="lFr_UAIBgHDYgoveQ9sL-203" style="edgeStyle=orthogonalEdgeStyle;rounded=0;orthogonalLoop=1;jettySize=auto;html=1;endArrow=none;startFill=0;dashed=1;exitX=0.496;exitY=1.056;exitDx=0;exitDy=0;exitPerimeter=0;" parent="lFr_UAIBgHDYgoveQ9sL-189" source="lFr_UAIBgHDYgoveQ9sL-194" edge="1">
          <mxGeometry relative="1" as="geometry">
            <mxPoint x="294.85" y="210" as="targetPoint" />
            <mxPoint x="295.1" y="170" as="sourcePoint" />
            <Array as="points">
              <mxPoint x="295" y="191" />
            </Array>
          </mxGeometry>
        </mxCell>
        <mxCell id="lFr_UAIBgHDYgoveQ9sL-204" style="edgeStyle=orthogonalEdgeStyle;rounded=0;orthogonalLoop=1;jettySize=auto;html=1;endArrow=none;startFill=0;dashed=1;exitX=0.496;exitY=1.056;exitDx=0;exitDy=0;exitPerimeter=0;" parent="lFr_UAIBgHDYgoveQ9sL-189" edge="1">
          <mxGeometry relative="1" as="geometry">
            <mxPoint x="484.81999999999994" y="210" as="targetPoint" />
            <mxPoint x="484.97" y="163" as="sourcePoint" />
            <Array as="points">
              <mxPoint x="484.97" y="191" />
            </Array>
          </mxGeometry>
        </mxCell>
        <mxCell id="lFr_UAIBgHDYgoveQ9sL-205" style="edgeStyle=orthogonalEdgeStyle;rounded=0;orthogonalLoop=1;jettySize=auto;html=1;endArrow=none;startFill=0;dashed=1;exitX=0.496;exitY=1.056;exitDx=0;exitDy=0;exitPerimeter=0;" parent="lFr_UAIBgHDYgoveQ9sL-189" edge="1">
          <mxGeometry relative="1" as="geometry">
            <mxPoint x="674.8199999999999" y="210" as="targetPoint" />
            <mxPoint x="674.97" y="163" as="sourcePoint" />
            <Array as="points">
              <mxPoint x="674.97" y="191" />
            </Array>
          </mxGeometry>
        </mxCell>
        <mxCell id="lFr_UAIBgHDYgoveQ9sL-206" value="Open store menu screen" style="html=1;verticalAlign=bottom;endArrow=block;curved=0;rounded=0;" parent="lFr_UAIBgHDYgoveQ9sL-189" edge="1">
          <mxGeometry width="80" relative="1" as="geometry">
            <mxPoint x="110" y="250" as="sourcePoint" />
            <mxPoint x="290" y="250" as="targetPoint" />
            <mxPoint as="offset" />
            <Array as="points">
              <mxPoint x="200" y="250" />
            </Array>
          </mxGeometry>
        </mxCell>
        <mxCell id="lFr_UAIBgHDYgoveQ9sL-226" value="alt" style="shape=umlFrame;whiteSpace=wrap;html=1;pointerEvents=0;recursiveResize=0;container=1;collapsible=0;width=40;height=20;fontSize=9;" parent="lFr_UAIBgHDYgoveQ9sL-189" vertex="1">
          <mxGeometry x="260" y="330" width="440" height="190" as="geometry" />
        </mxCell>
        <mxCell id="lFr_UAIBgHDYgoveQ9sL-227" value="[valid if lat/lng are pass]" style="text;html=1;fontSize=9;" parent="lFr_UAIBgHDYgoveQ9sL-226" vertex="1">
          <mxGeometry width="100" height="20" relative="1" as="geometry">
            <mxPoint x="41" as="offset" />
          </mxGeometry>
        </mxCell>
        <mxCell id="lFr_UAIBgHDYgoveQ9sL-228" value="" style="line;strokeWidth=1;labelPosition=center;verticalLabelPosition=bottom;align=left;verticalAlign=top;spacingLeft=20;spacingTop=15;html=1;whiteSpace=wrap;" parent="lFr_UAIBgHDYgoveQ9sL-226" vertex="1">
          <mxGeometry y="125" width="440" height="10" as="geometry" />
        </mxCell>
        <mxCell id="lFr_UAIBgHDYgoveQ9sL-229" value="&lt;span style=&quot;font-size: 9px; text-align: left; text-wrap-mode: nowrap;&quot;&gt;[invalid information]&lt;/span&gt;" style="text;html=1;align=center;verticalAlign=middle;whiteSpace=wrap;rounded=0;fontSize=8;" parent="lFr_UAIBgHDYgoveQ9sL-226" vertex="1">
          <mxGeometry x="50" y="125" width="60" height="30" as="geometry" />
        </mxCell>
        <mxCell id="lFr_UAIBgHDYgoveQ9sL-230" value="&lt;font style=&quot;color: rgb(255, 51, 51);&quot;&gt;lat/lng is require&lt;/font&gt;" style="html=1;verticalAlign=bottom;endArrow=block;curved=0;rounded=0;dashed=1;strokeWidth=1;fontColor=#00CC00;strokeColor=#FF3333;" parent="lFr_UAIBgHDYgoveQ9sL-226" edge="1">
          <mxGeometry x="0.0032" width="80" relative="1" as="geometry">
            <mxPoint x="220" y="170" as="sourcePoint" />
            <mxPoint x="40" y="170" as="targetPoint" />
            <mxPoint as="offset" />
          </mxGeometry>
        </mxCell>
        <mxCell id="lFr_UAIBgHDYgoveQ9sL-231" value="Request channels&amp;nbsp;&lt;div&gt;order by distance&amp;nbsp;&lt;/div&gt;" style="html=1;verticalAlign=bottom;endArrow=block;curved=0;rounded=0;" parent="lFr_UAIBgHDYgoveQ9sL-226" edge="1">
          <mxGeometry width="80" relative="1" as="geometry">
            <mxPoint x="40" y="60" as="sourcePoint" />
            <mxPoint x="220" y="60" as="targetPoint" />
            <mxPoint as="offset" />
          </mxGeometry>
        </mxCell>
        <mxCell id="lFr_UAIBgHDYgoveQ9sL-232" value="response channels" style="html=1;verticalAlign=bottom;endArrow=block;curved=0;rounded=0;dashed=1;strokeWidth=1;" parent="lFr_UAIBgHDYgoveQ9sL-226" edge="1">
          <mxGeometry width="80" relative="1" as="geometry">
            <mxPoint x="410" y="94.28999999999996" as="sourcePoint" />
            <mxPoint x="230" y="94.28999999999996" as="targetPoint" />
            <mxPoint as="offset" />
          </mxGeometry>
        </mxCell>
        <mxCell id="lFr_UAIBgHDYgoveQ9sL-233" value="query channels" style="html=1;verticalAlign=bottom;endArrow=block;curved=0;rounded=0;" parent="lFr_UAIBgHDYgoveQ9sL-226" edge="1">
          <mxGeometry width="80" relative="1" as="geometry">
            <mxPoint x="230" y="70" as="sourcePoint" />
            <mxPoint x="410" y="70" as="targetPoint" />
            <mxPoint as="offset" />
          </mxGeometry>
        </mxCell>
        <mxCell id="lFr_UAIBgHDYgoveQ9sL-234" value="&lt;font style=&quot;&quot;&gt;return channels&amp;nbsp;&lt;/font&gt;&lt;div&gt;&lt;font style=&quot;&quot;&gt;order by distance&lt;/font&gt;&lt;/div&gt;" style="html=1;verticalAlign=bottom;endArrow=block;curved=0;rounded=0;dashed=1;strokeWidth=1;fontColor=#00CC00;strokeColor=#00CC00;" parent="lFr_UAIBgHDYgoveQ9sL-226" edge="1">
          <mxGeometry width="80" relative="1" as="geometry">
            <mxPoint x="220" y="120" as="sourcePoint" />
            <mxPoint x="40" y="120" as="targetPoint" />
            <mxPoint as="offset" />
          </mxGeometry>
        </mxCell>
        <mxCell id="lFr_UAIBgHDYgoveQ9sL-236" value="loop" style="shape=umlFrame;whiteSpace=wrap;html=1;pointerEvents=0;width=40;height=20;fontSize=8;" parent="1" vertex="1">
          <mxGeometry x="1900" y="1190" width="680" height="310" as="geometry" />
        </mxCell>
        <mxCell id="lFr_UAIBgHDYgoveQ9sL-246" value="[&lt;font&gt;until no more channels]&lt;/font&gt;" style="text;html=1;align=center;verticalAlign=middle;whiteSpace=wrap;rounded=0;fontSize=8;" parent="1" vertex="1">
          <mxGeometry x="1910" y="1190" width="150" height="20" as="geometry" />
        </mxCell>
        <mxCell id="lFr_UAIBgHDYgoveQ9sL-247" value="Browse the channels" style="html=1;verticalAlign=bottom;endArrow=block;curved=0;rounded=0;" parent="1" edge="1">
          <mxGeometry width="80" relative="1" as="geometry">
            <mxPoint x="1950" y="1230" as="sourcePoint" />
            <mxPoint x="2130" y="1230" as="targetPoint" />
            <mxPoint as="offset" />
            <Array as="points">
              <mxPoint x="2040" y="1230" />
            </Array>
          </mxGeometry>
        </mxCell>
        <mxCell id="lFr_UAIBgHDYgoveQ9sL-248" value="sequence #5 search product in channel " style="swimlane;whiteSpace=wrap" parent="1" vertex="1">
          <mxGeometry x="2600" y="180" width="780" height="580" as="geometry" />
        </mxCell>
        <mxCell id="lFr_UAIBgHDYgoveQ9sL-249" style="edgeStyle=orthogonalEdgeStyle;rounded=0;orthogonalLoop=1;jettySize=auto;html=1;entryX=0;entryY=0.5;entryDx=0;entryDy=0;" parent="lFr_UAIBgHDYgoveQ9sL-248" edge="1">
          <mxGeometry relative="1" as="geometry">
            <Array as="points">
              <mxPoint x="60" y="489" />
              <mxPoint x="60" y="233" />
            </Array>
            <mxPoint x="150" y="233" as="targetPoint" />
          </mxGeometry>
        </mxCell>
        <mxCell id="lFr_UAIBgHDYgoveQ9sL-250" style="edgeStyle=orthogonalEdgeStyle;rounded=0;orthogonalLoop=1;jettySize=auto;html=1;endArrow=none;startFill=0;dashed=1;" parent="lFr_UAIBgHDYgoveQ9sL-248" edge="1">
          <mxGeometry relative="1" as="geometry">
            <mxPoint x="104.75" y="210" as="targetPoint" />
            <mxPoint x="105" y="170" as="sourcePoint" />
            <Array as="points">
              <mxPoint x="105" y="191" />
            </Array>
          </mxGeometry>
        </mxCell>
        <mxCell id="lFr_UAIBgHDYgoveQ9sL-251" value="User" style="shape=umlActor;verticalLabelPosition=bottom;verticalAlign=top;html=1;fillColor=#e1d5e7;strokeColor=#9673a6;" parent="lFr_UAIBgHDYgoveQ9sL-248" vertex="1">
          <mxGeometry x="90" y="90" width="30" height="60" as="geometry" />
        </mxCell>
        <mxCell id="lFr_UAIBgHDYgoveQ9sL-252" value="" style="html=1;points=[[0,0,0,0,5],[0,1,0,0,-5],[1,0,0,0,5],[1,1,0,0,-5]];perimeter=orthogonalPerimeter;outlineConnect=0;targetShapes=umlLifeline;portConstraint=eastwest;newEdgeStyle={&quot;curved&quot;:0,&quot;rounded&quot;:0};fillColor=#e1d5e7;strokeColor=#9673a6;" parent="lFr_UAIBgHDYgoveQ9sL-248" vertex="1">
          <mxGeometry x="100" y="210" width="10" height="330" as="geometry" />
        </mxCell>
        <mxCell id="lFr_UAIBgHDYgoveQ9sL-253" value="Mobile App" style="html=1;whiteSpace=wrap;fillColor=#dae8fc;strokeColor=#6c8ebf;" parent="lFr_UAIBgHDYgoveQ9sL-248" vertex="1">
          <mxGeometry x="240" y="110" width="110" height="50" as="geometry" />
        </mxCell>
        <mxCell id="lFr_UAIBgHDYgoveQ9sL-254" value="API" style="html=1;whiteSpace=wrap;fillColor=#d5e8d4;strokeColor=#82b366;" parent="lFr_UAIBgHDYgoveQ9sL-248" vertex="1">
          <mxGeometry x="430" y="110" width="110" height="50" as="geometry" />
        </mxCell>
        <mxCell id="lFr_UAIBgHDYgoveQ9sL-255" value="Database" style="html=1;whiteSpace=wrap;fillColor=#ffe6cc;strokeColor=#d79b00;" parent="lFr_UAIBgHDYgoveQ9sL-248" vertex="1">
          <mxGeometry x="620" y="110" width="110" height="50" as="geometry" />
        </mxCell>
        <mxCell id="lFr_UAIBgHDYgoveQ9sL-256" value="" style="html=1;points=[[0,0,0,0,5],[0,1,0,0,-5],[1,0,0,0,5],[1,1,0,0,-5]];perimeter=orthogonalPerimeter;outlineConnect=0;targetShapes=umlLifeline;portConstraint=eastwest;newEdgeStyle={&quot;curved&quot;:0,&quot;rounded&quot;:0};fillColor=#dae8fc;strokeColor=#6c8ebf;" parent="lFr_UAIBgHDYgoveQ9sL-248" vertex="1">
          <mxGeometry x="290" y="210" width="10" height="330" as="geometry" />
        </mxCell>
        <mxCell id="lFr_UAIBgHDYgoveQ9sL-257" value="" style="html=1;points=[[0,0,0,0,5],[0,1,0,0,-5],[1,0,0,0,5],[1,1,0,0,-5]];perimeter=orthogonalPerimeter;outlineConnect=0;targetShapes=umlLifeline;portConstraint=eastwest;newEdgeStyle={&quot;curved&quot;:0,&quot;rounded&quot;:0};fillColor=#d5e8d4;strokeColor=#82b366;" parent="lFr_UAIBgHDYgoveQ9sL-248" vertex="1">
          <mxGeometry x="480" y="210" width="10" height="330" as="geometry" />
        </mxCell>
        <mxCell id="lFr_UAIBgHDYgoveQ9sL-258" value="" style="html=1;points=[[0,0,0,0,5],[0,1,0,0,-5],[1,0,0,0,5],[1,1,0,0,-5]];perimeter=orthogonalPerimeter;outlineConnect=0;targetShapes=umlLifeline;portConstraint=eastwest;newEdgeStyle={&quot;curved&quot;:0,&quot;rounded&quot;:0};fillColor=#ffe6cc;strokeColor=#d79b00;" parent="lFr_UAIBgHDYgoveQ9sL-248" vertex="1">
          <mxGeometry x="670" y="210" width="10" height="330" as="geometry" />
        </mxCell>
        <mxCell id="lFr_UAIBgHDYgoveQ9sL-261" value="Display to the user" style="html=1;verticalAlign=bottom;endArrow=block;curved=0;rounded=0;dashed=1;strokeWidth=1;" parent="lFr_UAIBgHDYgoveQ9sL-248" edge="1">
          <mxGeometry width="80" relative="1" as="geometry">
            <mxPoint x="290" y="470" as="sourcePoint" />
            <mxPoint x="110" y="470" as="targetPoint" />
            <mxPoint as="offset" />
          </mxGeometry>
        </mxCell>
        <mxCell id="lFr_UAIBgHDYgoveQ9sL-262" style="edgeStyle=orthogonalEdgeStyle;rounded=0;orthogonalLoop=1;jettySize=auto;html=1;endArrow=none;startFill=0;dashed=1;exitX=0.496;exitY=1.056;exitDx=0;exitDy=0;exitPerimeter=0;" parent="lFr_UAIBgHDYgoveQ9sL-248" source="lFr_UAIBgHDYgoveQ9sL-253" edge="1">
          <mxGeometry relative="1" as="geometry">
            <mxPoint x="294.85" y="210" as="targetPoint" />
            <mxPoint x="295.1" y="170" as="sourcePoint" />
            <Array as="points">
              <mxPoint x="295" y="191" />
            </Array>
          </mxGeometry>
        </mxCell>
        <mxCell id="lFr_UAIBgHDYgoveQ9sL-263" style="edgeStyle=orthogonalEdgeStyle;rounded=0;orthogonalLoop=1;jettySize=auto;html=1;endArrow=none;startFill=0;dashed=1;exitX=0.496;exitY=1.056;exitDx=0;exitDy=0;exitPerimeter=0;" parent="lFr_UAIBgHDYgoveQ9sL-248" edge="1">
          <mxGeometry relative="1" as="geometry">
            <mxPoint x="484.81999999999994" y="210" as="targetPoint" />
            <mxPoint x="484.97" y="163" as="sourcePoint" />
            <Array as="points">
              <mxPoint x="484.97" y="191" />
            </Array>
          </mxGeometry>
        </mxCell>
        <mxCell id="lFr_UAIBgHDYgoveQ9sL-264" style="edgeStyle=orthogonalEdgeStyle;rounded=0;orthogonalLoop=1;jettySize=auto;html=1;endArrow=none;startFill=0;dashed=1;exitX=0.496;exitY=1.056;exitDx=0;exitDy=0;exitPerimeter=0;" parent="lFr_UAIBgHDYgoveQ9sL-248" edge="1">
          <mxGeometry relative="1" as="geometry">
            <mxPoint x="674.8199999999999" y="210" as="targetPoint" />
            <mxPoint x="674.97" y="163" as="sourcePoint" />
            <Array as="points">
              <mxPoint x="674.97" y="191" />
            </Array>
          </mxGeometry>
        </mxCell>
        <mxCell id="lFr_UAIBgHDYgoveQ9sL-265" value="Click search on channels details" style="html=1;verticalAlign=bottom;endArrow=block;curved=0;rounded=0;" parent="lFr_UAIBgHDYgoveQ9sL-248" edge="1">
          <mxGeometry width="80" relative="1" as="geometry">
            <mxPoint x="110" y="250" as="sourcePoint" />
            <mxPoint x="290" y="250" as="targetPoint" />
            <mxPoint as="offset" />
            <Array as="points">
              <mxPoint x="200" y="250" />
            </Array>
          </mxGeometry>
        </mxCell>
        <mxCell id="lFr_UAIBgHDYgoveQ9sL-268" value="alt" style="shape=umlFrame;whiteSpace=wrap;html=1;pointerEvents=0;recursiveResize=0;container=1;collapsible=0;width=40;height=20;fontSize=9;" parent="lFr_UAIBgHDYgoveQ9sL-248" vertex="1">
          <mxGeometry x="260" y="260" width="450" height="190" as="geometry" />
        </mxCell>
        <mxCell id="lFr_UAIBgHDYgoveQ9sL-269" value="[if have product]" style="text;html=1;fontSize=9;" parent="lFr_UAIBgHDYgoveQ9sL-268" vertex="1">
          <mxGeometry width="100" height="20" relative="1" as="geometry">
            <mxPoint x="41" as="offset" />
          </mxGeometry>
        </mxCell>
        <mxCell id="lFr_UAIBgHDYgoveQ9sL-270" value="" style="line;strokeWidth=1;labelPosition=center;verticalLabelPosition=bottom;align=left;verticalAlign=top;spacingLeft=20;spacingTop=15;html=1;whiteSpace=wrap;" parent="lFr_UAIBgHDYgoveQ9sL-268" vertex="1">
          <mxGeometry y="125" width="450" height="10" as="geometry" />
        </mxCell>
        <mxCell id="lFr_UAIBgHDYgoveQ9sL-271" value="&lt;div style=&quot;text-align: left;&quot;&gt;&lt;span style=&quot;background-color: transparent; color: light-dark(rgb(0, 0, 0), rgb(255, 255, 255)); text-wrap-mode: nowrap;&quot;&gt;&lt;font size=&quot;1&quot;&gt;[ if no product]&lt;/font&gt;&lt;/span&gt;&lt;/div&gt;" style="text;html=1;align=center;verticalAlign=middle;whiteSpace=wrap;rounded=0;fontSize=8;" parent="lFr_UAIBgHDYgoveQ9sL-268" vertex="1">
          <mxGeometry x="50" y="125" width="60" height="30" as="geometry" />
        </mxCell>
        <mxCell id="lFr_UAIBgHDYgoveQ9sL-272" value="&lt;font style=&quot;&quot;&gt;return products&lt;/font&gt;" style="html=1;verticalAlign=bottom;endArrow=block;curved=0;rounded=0;dashed=1;strokeWidth=1;fontColor=#00CC00;strokeColor=#00CC00;" parent="lFr_UAIBgHDYgoveQ9sL-268" edge="1">
          <mxGeometry width="80" relative="1" as="geometry">
            <mxPoint x="220" y="119" as="sourcePoint" />
            <mxPoint x="40" y="119" as="targetPoint" />
            <mxPoint as="offset" />
          </mxGeometry>
        </mxCell>
        <mxCell id="lFr_UAIBgHDYgoveQ9sL-273" value="&lt;font style=&quot;color: rgb(255, 51, 51);&quot;&gt;return empty array&lt;/font&gt;" style="html=1;verticalAlign=bottom;endArrow=block;curved=0;rounded=0;dashed=1;strokeWidth=1;fontColor=#00CC00;strokeColor=#FF3333;" parent="lFr_UAIBgHDYgoveQ9sL-268" edge="1">
          <mxGeometry x="0.0032" width="80" relative="1" as="geometry">
            <mxPoint x="220" y="170" as="sourcePoint" />
            <mxPoint x="40" y="170" as="targetPoint" />
            <mxPoint as="offset" />
          </mxGeometry>
        </mxCell>
        <mxCell id="lFr_UAIBgHDYgoveQ9sL-274" value="Request products with search&amp;nbsp;&lt;div&gt;param and channels id&amp;nbsp;&lt;/div&gt;" style="html=1;verticalAlign=bottom;endArrow=block;curved=0;rounded=0;" parent="lFr_UAIBgHDYgoveQ9sL-268" edge="1">
          <mxGeometry width="80" relative="1" as="geometry">
            <mxPoint x="40" y="60" as="sourcePoint" />
            <mxPoint x="220" y="60" as="targetPoint" />
            <mxPoint as="offset" />
          </mxGeometry>
        </mxCell>
        <mxCell id="lFr_UAIBgHDYgoveQ9sL-276" value="query product in that channels" style="html=1;verticalAlign=bottom;endArrow=block;curved=0;rounded=0;" parent="lFr_UAIBgHDYgoveQ9sL-268" edge="1">
          <mxGeometry width="80" relative="1" as="geometry">
            <mxPoint x="230" y="80" as="sourcePoint" />
            <mxPoint x="410" y="80" as="targetPoint" />
            <mxPoint as="offset" />
          </mxGeometry>
        </mxCell>
        <mxCell id="lFr_UAIBgHDYgoveQ9sL-277" value="response products" style="html=1;verticalAlign=bottom;endArrow=block;curved=0;rounded=0;dashed=1;strokeWidth=1;" parent="lFr_UAIBgHDYgoveQ9sL-268" edge="1">
          <mxGeometry width="80" relative="1" as="geometry">
            <mxPoint x="410" y="109" as="sourcePoint" />
            <mxPoint x="230" y="109" as="targetPoint" />
            <mxPoint as="offset" />
          </mxGeometry>
        </mxCell>
        <mxCell id="lFr_UAIBgHDYgoveQ9sL-280" value="sequence #6 view channels details" style="swimlane;whiteSpace=wrap" parent="1" vertex="1">
          <mxGeometry x="2710" y="810" width="780" height="580" as="geometry" />
        </mxCell>
        <mxCell id="lFr_UAIBgHDYgoveQ9sL-281" style="edgeStyle=orthogonalEdgeStyle;rounded=0;orthogonalLoop=1;jettySize=auto;html=1;entryX=0;entryY=0.5;entryDx=0;entryDy=0;" parent="lFr_UAIBgHDYgoveQ9sL-280" edge="1">
          <mxGeometry relative="1" as="geometry">
            <Array as="points">
              <mxPoint x="60" y="489" />
              <mxPoint x="60" y="233" />
            </Array>
            <mxPoint x="150" y="233" as="targetPoint" />
          </mxGeometry>
        </mxCell>
        <mxCell id="lFr_UAIBgHDYgoveQ9sL-282" style="edgeStyle=orthogonalEdgeStyle;rounded=0;orthogonalLoop=1;jettySize=auto;html=1;endArrow=none;startFill=0;dashed=1;" parent="lFr_UAIBgHDYgoveQ9sL-280" edge="1">
          <mxGeometry relative="1" as="geometry">
            <mxPoint x="104.75" y="210" as="targetPoint" />
            <mxPoint x="105" y="170" as="sourcePoint" />
            <Array as="points">
              <mxPoint x="105" y="191" />
            </Array>
          </mxGeometry>
        </mxCell>
        <mxCell id="lFr_UAIBgHDYgoveQ9sL-283" value="User" style="shape=umlActor;verticalLabelPosition=bottom;verticalAlign=top;html=1;fillColor=#e1d5e7;strokeColor=#9673a6;" parent="lFr_UAIBgHDYgoveQ9sL-280" vertex="1">
          <mxGeometry x="90" y="90" width="30" height="60" as="geometry" />
        </mxCell>
        <mxCell id="lFr_UAIBgHDYgoveQ9sL-284" value="" style="html=1;points=[[0,0,0,0,5],[0,1,0,0,-5],[1,0,0,0,5],[1,1,0,0,-5]];perimeter=orthogonalPerimeter;outlineConnect=0;targetShapes=umlLifeline;portConstraint=eastwest;newEdgeStyle={&quot;curved&quot;:0,&quot;rounded&quot;:0};fillColor=#e1d5e7;strokeColor=#9673a6;" parent="lFr_UAIBgHDYgoveQ9sL-280" vertex="1">
          <mxGeometry x="100" y="210" width="10" height="330" as="geometry" />
        </mxCell>
        <mxCell id="lFr_UAIBgHDYgoveQ9sL-285" value="Mobile App" style="html=1;whiteSpace=wrap;fillColor=#dae8fc;strokeColor=#6c8ebf;" parent="lFr_UAIBgHDYgoveQ9sL-280" vertex="1">
          <mxGeometry x="240" y="110" width="110" height="50" as="geometry" />
        </mxCell>
        <mxCell id="lFr_UAIBgHDYgoveQ9sL-286" value="API" style="html=1;whiteSpace=wrap;fillColor=#d5e8d4;strokeColor=#82b366;" parent="lFr_UAIBgHDYgoveQ9sL-280" vertex="1">
          <mxGeometry x="430" y="110" width="110" height="50" as="geometry" />
        </mxCell>
        <mxCell id="lFr_UAIBgHDYgoveQ9sL-287" value="Database" style="html=1;whiteSpace=wrap;fillColor=#ffe6cc;strokeColor=#d79b00;" parent="lFr_UAIBgHDYgoveQ9sL-280" vertex="1">
          <mxGeometry x="620" y="110" width="110" height="50" as="geometry" />
        </mxCell>
        <mxCell id="lFr_UAIBgHDYgoveQ9sL-288" value="" style="html=1;points=[[0,0,0,0,5],[0,1,0,0,-5],[1,0,0,0,5],[1,1,0,0,-5]];perimeter=orthogonalPerimeter;outlineConnect=0;targetShapes=umlLifeline;portConstraint=eastwest;newEdgeStyle={&quot;curved&quot;:0,&quot;rounded&quot;:0};fillColor=#dae8fc;strokeColor=#6c8ebf;" parent="lFr_UAIBgHDYgoveQ9sL-280" vertex="1">
          <mxGeometry x="290" y="210" width="10" height="330" as="geometry" />
        </mxCell>
        <mxCell id="lFr_UAIBgHDYgoveQ9sL-289" value="" style="html=1;points=[[0,0,0,0,5],[0,1,0,0,-5],[1,0,0,0,5],[1,1,0,0,-5]];perimeter=orthogonalPerimeter;outlineConnect=0;targetShapes=umlLifeline;portConstraint=eastwest;newEdgeStyle={&quot;curved&quot;:0,&quot;rounded&quot;:0};fillColor=#d5e8d4;strokeColor=#82b366;" parent="lFr_UAIBgHDYgoveQ9sL-280" vertex="1">
          <mxGeometry x="480" y="210" width="10" height="330" as="geometry" />
        </mxCell>
        <mxCell id="lFr_UAIBgHDYgoveQ9sL-290" value="" style="html=1;points=[[0,0,0,0,5],[0,1,0,0,-5],[1,0,0,0,5],[1,1,0,0,-5]];perimeter=orthogonalPerimeter;outlineConnect=0;targetShapes=umlLifeline;portConstraint=eastwest;newEdgeStyle={&quot;curved&quot;:0,&quot;rounded&quot;:0};fillColor=#ffe6cc;strokeColor=#d79b00;" parent="lFr_UAIBgHDYgoveQ9sL-280" vertex="1">
          <mxGeometry x="670" y="210" width="10" height="330" as="geometry" />
        </mxCell>
        <mxCell id="lFr_UAIBgHDYgoveQ9sL-291" value="Display to the user" style="html=1;verticalAlign=bottom;endArrow=block;curved=0;rounded=0;dashed=1;strokeWidth=1;" parent="lFr_UAIBgHDYgoveQ9sL-280" edge="1">
          <mxGeometry width="80" relative="1" as="geometry">
            <mxPoint x="290" y="420" as="sourcePoint" />
            <mxPoint x="110" y="420" as="targetPoint" />
            <mxPoint as="offset" />
          </mxGeometry>
        </mxCell>
        <mxCell id="lFr_UAIBgHDYgoveQ9sL-292" style="edgeStyle=orthogonalEdgeStyle;rounded=0;orthogonalLoop=1;jettySize=auto;html=1;endArrow=none;startFill=0;dashed=1;exitX=0.496;exitY=1.056;exitDx=0;exitDy=0;exitPerimeter=0;" parent="lFr_UAIBgHDYgoveQ9sL-280" source="lFr_UAIBgHDYgoveQ9sL-285" edge="1">
          <mxGeometry relative="1" as="geometry">
            <mxPoint x="294.85" y="210" as="targetPoint" />
            <mxPoint x="295.1" y="170" as="sourcePoint" />
            <Array as="points">
              <mxPoint x="295" y="191" />
            </Array>
          </mxGeometry>
        </mxCell>
        <mxCell id="lFr_UAIBgHDYgoveQ9sL-293" style="edgeStyle=orthogonalEdgeStyle;rounded=0;orthogonalLoop=1;jettySize=auto;html=1;endArrow=none;startFill=0;dashed=1;exitX=0.496;exitY=1.056;exitDx=0;exitDy=0;exitPerimeter=0;" parent="lFr_UAIBgHDYgoveQ9sL-280" edge="1">
          <mxGeometry relative="1" as="geometry">
            <mxPoint x="484.81999999999994" y="210" as="targetPoint" />
            <mxPoint x="484.97" y="163" as="sourcePoint" />
            <Array as="points">
              <mxPoint x="484.97" y="191" />
            </Array>
          </mxGeometry>
        </mxCell>
        <mxCell id="lFr_UAIBgHDYgoveQ9sL-294" style="edgeStyle=orthogonalEdgeStyle;rounded=0;orthogonalLoop=1;jettySize=auto;html=1;endArrow=none;startFill=0;dashed=1;exitX=0.496;exitY=1.056;exitDx=0;exitDy=0;exitPerimeter=0;" parent="lFr_UAIBgHDYgoveQ9sL-280" edge="1">
          <mxGeometry relative="1" as="geometry">
            <mxPoint x="674.8199999999999" y="210" as="targetPoint" />
            <mxPoint x="674.97" y="163" as="sourcePoint" />
            <Array as="points">
              <mxPoint x="674.97" y="191" />
            </Array>
          </mxGeometry>
        </mxCell>
        <mxCell id="lFr_UAIBgHDYgoveQ9sL-295" value="Click on channels" style="html=1;verticalAlign=bottom;endArrow=block;curved=0;rounded=0;" parent="lFr_UAIBgHDYgoveQ9sL-280" edge="1">
          <mxGeometry width="80" relative="1" as="geometry">
            <mxPoint x="110" y="250" as="sourcePoint" />
            <mxPoint x="290" y="250" as="targetPoint" />
            <mxPoint as="offset" />
            <Array as="points">
              <mxPoint x="200" y="250" />
            </Array>
          </mxGeometry>
        </mxCell>
        <mxCell id="lFr_UAIBgHDYgoveQ9sL-305" value="request channels details&amp;nbsp;&lt;div&gt;pass channels id&lt;/div&gt;" style="html=1;verticalAlign=bottom;endArrow=block;curved=0;rounded=0;" parent="lFr_UAIBgHDYgoveQ9sL-280" edge="1">
          <mxGeometry width="80" relative="1" as="geometry">
            <mxPoint x="300" y="280" as="sourcePoint" />
            <mxPoint x="480" y="280" as="targetPoint" />
            <mxPoint as="offset" />
            <Array as="points">
              <mxPoint x="390" y="280" />
            </Array>
          </mxGeometry>
        </mxCell>
        <mxCell id="lFr_UAIBgHDYgoveQ9sL-306" value="query channels details by&amp;nbsp;&lt;div&gt;channels id&lt;/div&gt;" style="html=1;verticalAlign=bottom;endArrow=block;curved=0;rounded=0;" parent="lFr_UAIBgHDYgoveQ9sL-280" edge="1">
          <mxGeometry width="80" relative="1" as="geometry">
            <mxPoint x="490" y="310" as="sourcePoint" />
            <mxPoint x="670" y="310" as="targetPoint" />
            <mxPoint as="offset" />
            <Array as="points">
              <mxPoint x="580" y="310" />
            </Array>
          </mxGeometry>
        </mxCell>
        <mxCell id="lFr_UAIBgHDYgoveQ9sL-307" value="return the channels data" style="html=1;verticalAlign=bottom;endArrow=block;curved=0;rounded=0;dashed=1;strokeWidth=1;" parent="lFr_UAIBgHDYgoveQ9sL-280" edge="1">
          <mxGeometry width="80" relative="1" as="geometry">
            <mxPoint x="670" y="350" as="sourcePoint" />
            <mxPoint x="490" y="350" as="targetPoint" />
            <mxPoint as="offset" />
          </mxGeometry>
        </mxCell>
        <mxCell id="lFr_UAIBgHDYgoveQ9sL-308" value="response the channels details" style="html=1;verticalAlign=bottom;endArrow=block;curved=0;rounded=0;dashed=1;strokeWidth=1;" parent="lFr_UAIBgHDYgoveQ9sL-280" edge="1">
          <mxGeometry width="80" relative="1" as="geometry">
            <mxPoint x="480" y="380" as="sourcePoint" />
            <mxPoint x="300" y="380" as="targetPoint" />
            <mxPoint as="offset" />
          </mxGeometry>
        </mxCell>
        <mxCell id="lFr_UAIBgHDYgoveQ9sL-309" value="sequence #7 Update channel" style="swimlane;whiteSpace=wrap" parent="1" vertex="1">
          <mxGeometry x="3590" y="150" width="770" height="600" as="geometry" />
        </mxCell>
        <mxCell id="lFr_UAIBgHDYgoveQ9sL-310" style="edgeStyle=orthogonalEdgeStyle;rounded=0;orthogonalLoop=1;jettySize=auto;html=1;entryX=0;entryY=0.5;entryDx=0;entryDy=0;" parent="lFr_UAIBgHDYgoveQ9sL-309" edge="1">
          <mxGeometry relative="1" as="geometry">
            <Array as="points">
              <mxPoint x="60" y="489" />
              <mxPoint x="60" y="233" />
            </Array>
            <mxPoint x="150" y="233" as="targetPoint" />
          </mxGeometry>
        </mxCell>
        <mxCell id="lFr_UAIBgHDYgoveQ9sL-311" style="edgeStyle=orthogonalEdgeStyle;rounded=0;orthogonalLoop=1;jettySize=auto;html=1;endArrow=none;startFill=0;dashed=1;" parent="lFr_UAIBgHDYgoveQ9sL-309" edge="1">
          <mxGeometry relative="1" as="geometry">
            <mxPoint x="104.75" y="210" as="targetPoint" />
            <mxPoint x="105" y="170" as="sourcePoint" />
            <Array as="points">
              <mxPoint x="105" y="191" />
            </Array>
          </mxGeometry>
        </mxCell>
        <mxCell id="lFr_UAIBgHDYgoveQ9sL-312" value="Admin" style="shape=umlActor;verticalLabelPosition=bottom;verticalAlign=top;html=1;fillColor=#e1d5e7;strokeColor=#9673a6;" parent="lFr_UAIBgHDYgoveQ9sL-309" vertex="1">
          <mxGeometry x="90" y="90" width="30" height="60" as="geometry" />
        </mxCell>
        <mxCell id="lFr_UAIBgHDYgoveQ9sL-313" value="" style="html=1;points=[[0,0,0,0,5],[0,1,0,0,-5],[1,0,0,0,5],[1,1,0,0,-5]];perimeter=orthogonalPerimeter;outlineConnect=0;targetShapes=umlLifeline;portConstraint=eastwest;newEdgeStyle={&quot;curved&quot;:0,&quot;rounded&quot;:0};fillColor=#e1d5e7;strokeColor=#9673a6;" parent="lFr_UAIBgHDYgoveQ9sL-309" vertex="1">
          <mxGeometry x="100" y="210" width="10" height="350" as="geometry" />
        </mxCell>
        <mxCell id="lFr_UAIBgHDYgoveQ9sL-314" value="Frontend" style="html=1;whiteSpace=wrap;fillColor=#dae8fc;strokeColor=#6c8ebf;" parent="lFr_UAIBgHDYgoveQ9sL-309" vertex="1">
          <mxGeometry x="240" y="110" width="110" height="50" as="geometry" />
        </mxCell>
        <mxCell id="lFr_UAIBgHDYgoveQ9sL-315" value="API" style="html=1;whiteSpace=wrap;fillColor=#d5e8d4;strokeColor=#82b366;" parent="lFr_UAIBgHDYgoveQ9sL-309" vertex="1">
          <mxGeometry x="430" y="110" width="110" height="50" as="geometry" />
        </mxCell>
        <mxCell id="lFr_UAIBgHDYgoveQ9sL-316" value="Database" style="html=1;whiteSpace=wrap;fillColor=#ffe6cc;strokeColor=#d79b00;" parent="lFr_UAIBgHDYgoveQ9sL-309" vertex="1">
          <mxGeometry x="620" y="110" width="110" height="50" as="geometry" />
        </mxCell>
        <mxCell id="lFr_UAIBgHDYgoveQ9sL-317" value="" style="html=1;points=[[0,0,0,0,5],[0,1,0,0,-5],[1,0,0,0,5],[1,1,0,0,-5]];perimeter=orthogonalPerimeter;outlineConnect=0;targetShapes=umlLifeline;portConstraint=eastwest;newEdgeStyle={&quot;curved&quot;:0,&quot;rounded&quot;:0};fillColor=#dae8fc;strokeColor=#6c8ebf;" parent="lFr_UAIBgHDYgoveQ9sL-309" vertex="1">
          <mxGeometry x="290" y="210" width="10" height="350" as="geometry" />
        </mxCell>
        <mxCell id="lFr_UAIBgHDYgoveQ9sL-318" value="" style="html=1;points=[[0,0,0,0,5],[0,1,0,0,-5],[1,0,0,0,5],[1,1,0,0,-5]];perimeter=orthogonalPerimeter;outlineConnect=0;targetShapes=umlLifeline;portConstraint=eastwest;newEdgeStyle={&quot;curved&quot;:0,&quot;rounded&quot;:0};fillColor=#d5e8d4;strokeColor=#82b366;" parent="lFr_UAIBgHDYgoveQ9sL-309" vertex="1">
          <mxGeometry x="480" y="210" width="10" height="360" as="geometry" />
        </mxCell>
        <mxCell id="lFr_UAIBgHDYgoveQ9sL-319" value="" style="html=1;points=[[0,0,0,0,5],[0,1,0,0,-5],[1,0,0,0,5],[1,1,0,0,-5]];perimeter=orthogonalPerimeter;outlineConnect=0;targetShapes=umlLifeline;portConstraint=eastwest;newEdgeStyle={&quot;curved&quot;:0,&quot;rounded&quot;:0};fillColor=#ffe6cc;strokeColor=#d79b00;" parent="lFr_UAIBgHDYgoveQ9sL-309" vertex="1">
          <mxGeometry x="670" y="210" width="10" height="350" as="geometry" />
        </mxCell>
        <mxCell id="lFr_UAIBgHDYgoveQ9sL-322" value="Show message dialog" style="html=1;verticalAlign=bottom;endArrow=block;curved=0;rounded=0;dashed=1;strokeWidth=1;" parent="lFr_UAIBgHDYgoveQ9sL-309" edge="1">
          <mxGeometry width="80" relative="1" as="geometry">
            <mxPoint x="290" y="490" as="sourcePoint" />
            <mxPoint x="110" y="490" as="targetPoint" />
            <mxPoint as="offset" />
          </mxGeometry>
        </mxCell>
        <mxCell id="lFr_UAIBgHDYgoveQ9sL-323" style="edgeStyle=orthogonalEdgeStyle;rounded=0;orthogonalLoop=1;jettySize=auto;html=1;endArrow=none;startFill=0;dashed=1;exitX=0.496;exitY=1.056;exitDx=0;exitDy=0;exitPerimeter=0;" parent="lFr_UAIBgHDYgoveQ9sL-309" source="lFr_UAIBgHDYgoveQ9sL-314" edge="1">
          <mxGeometry relative="1" as="geometry">
            <mxPoint x="294.85" y="210" as="targetPoint" />
            <mxPoint x="295.1" y="170" as="sourcePoint" />
            <Array as="points">
              <mxPoint x="295" y="191" />
            </Array>
          </mxGeometry>
        </mxCell>
        <mxCell id="lFr_UAIBgHDYgoveQ9sL-324" style="edgeStyle=orthogonalEdgeStyle;rounded=0;orthogonalLoop=1;jettySize=auto;html=1;endArrow=none;startFill=0;dashed=1;exitX=0.496;exitY=1.056;exitDx=0;exitDy=0;exitPerimeter=0;" parent="lFr_UAIBgHDYgoveQ9sL-309" edge="1">
          <mxGeometry relative="1" as="geometry">
            <mxPoint x="484.81999999999994" y="210" as="targetPoint" />
            <mxPoint x="484.97" y="163" as="sourcePoint" />
            <Array as="points">
              <mxPoint x="484.97" y="191" />
            </Array>
          </mxGeometry>
        </mxCell>
        <mxCell id="lFr_UAIBgHDYgoveQ9sL-325" style="edgeStyle=orthogonalEdgeStyle;rounded=0;orthogonalLoop=1;jettySize=auto;html=1;endArrow=none;startFill=0;dashed=1;exitX=0.496;exitY=1.056;exitDx=0;exitDy=0;exitPerimeter=0;" parent="lFr_UAIBgHDYgoveQ9sL-309" edge="1">
          <mxGeometry relative="1" as="geometry">
            <mxPoint x="674.8199999999999" y="210" as="targetPoint" />
            <mxPoint x="674.97" y="163" as="sourcePoint" />
            <Array as="points">
              <mxPoint x="674.97" y="191" />
            </Array>
          </mxGeometry>
        </mxCell>
        <mxCell id="lFr_UAIBgHDYgoveQ9sL-326" value="Update the fields in channels" style="html=1;verticalAlign=bottom;endArrow=block;curved=0;rounded=0;" parent="lFr_UAIBgHDYgoveQ9sL-309" edge="1">
          <mxGeometry width="80" relative="1" as="geometry">
            <mxPoint x="110" y="250" as="sourcePoint" />
            <mxPoint x="290" y="250" as="targetPoint" />
            <mxPoint as="offset" />
            <Array as="points">
              <mxPoint x="200" y="250" />
            </Array>
          </mxGeometry>
        </mxCell>
        <mxCell id="lFr_UAIBgHDYgoveQ9sL-329" value="alt" style="shape=umlFrame;whiteSpace=wrap;html=1;pointerEvents=0;recursiveResize=0;container=1;collapsible=0;width=40;height=20;fontSize=9;" parent="lFr_UAIBgHDYgoveQ9sL-309" vertex="1">
          <mxGeometry x="260" y="270" width="450" height="190" as="geometry" />
        </mxCell>
        <mxCell id="lFr_UAIBgHDYgoveQ9sL-330" value="[valid information]" style="text;html=1;fontSize=9;" parent="lFr_UAIBgHDYgoveQ9sL-329" vertex="1">
          <mxGeometry width="100" height="20" relative="1" as="geometry">
            <mxPoint x="41" as="offset" />
          </mxGeometry>
        </mxCell>
        <mxCell id="lFr_UAIBgHDYgoveQ9sL-331" value="" style="line;strokeWidth=1;labelPosition=center;verticalLabelPosition=bottom;align=left;verticalAlign=top;spacingLeft=20;spacingTop=15;html=1;whiteSpace=wrap;" parent="lFr_UAIBgHDYgoveQ9sL-329" vertex="1">
          <mxGeometry y="125" width="450" height="10" as="geometry" />
        </mxCell>
        <mxCell id="lFr_UAIBgHDYgoveQ9sL-332" value="&lt;span style=&quot;font-size: 9px; text-align: left; text-wrap-mode: nowrap;&quot;&gt;[invalid information]&lt;/span&gt;" style="text;html=1;align=center;verticalAlign=middle;whiteSpace=wrap;rounded=0;fontSize=8;" parent="lFr_UAIBgHDYgoveQ9sL-329" vertex="1">
          <mxGeometry x="50" y="125" width="60" height="30" as="geometry" />
        </mxCell>
        <mxCell id="lFr_UAIBgHDYgoveQ9sL-333" value="&lt;font style=&quot;&quot;&gt;reponse success message&lt;/font&gt;" style="html=1;verticalAlign=bottom;endArrow=block;curved=0;rounded=0;dashed=1;strokeWidth=1;fontColor=#00CC00;strokeColor=#00CC00;" parent="lFr_UAIBgHDYgoveQ9sL-329" edge="1">
          <mxGeometry width="80" relative="1" as="geometry">
            <mxPoint x="220" y="100" as="sourcePoint" />
            <mxPoint x="40" y="100" as="targetPoint" />
            <mxPoint as="offset" />
          </mxGeometry>
        </mxCell>
        <mxCell id="lFr_UAIBgHDYgoveQ9sL-334" value="&lt;font style=&quot;color: rgb(255, 51, 51);&quot;&gt;reponse error message&lt;/font&gt;" style="html=1;verticalAlign=bottom;endArrow=block;curved=0;rounded=0;dashed=1;strokeWidth=1;fontColor=#00CC00;strokeColor=#FF3333;" parent="lFr_UAIBgHDYgoveQ9sL-329" edge="1">
          <mxGeometry x="0.0032" width="80" relative="1" as="geometry">
            <mxPoint x="410" y="170.00000000000006" as="sourcePoint" />
            <mxPoint x="40" y="170" as="targetPoint" />
            <mxPoint as="offset" />
          </mxGeometry>
        </mxCell>
        <mxCell id="lFr_UAIBgHDYgoveQ9sL-335" value="Request with data to update&amp;nbsp;" style="html=1;verticalAlign=bottom;endArrow=block;curved=0;rounded=0;" parent="lFr_UAIBgHDYgoveQ9sL-329" edge="1">
          <mxGeometry width="80" relative="1" as="geometry">
            <mxPoint x="40" y="40" as="sourcePoint" />
            <mxPoint x="220" y="40" as="targetPoint" />
            <mxPoint as="offset" />
          </mxGeometry>
        </mxCell>
        <mxCell id="lFr_UAIBgHDYgoveQ9sL-328" value="Update the channel" style="html=1;verticalAlign=bottom;endArrow=block;curved=0;rounded=0;" parent="lFr_UAIBgHDYgoveQ9sL-329" edge="1">
          <mxGeometry width="80" relative="1" as="geometry">
            <mxPoint x="230" y="70" as="sourcePoint" />
            <mxPoint x="410" y="70" as="targetPoint" />
            <mxPoint as="offset" />
          </mxGeometry>
        </mxCell>
        <mxCell id="lFr_UAIBgHDYgoveQ9sL-385" value="sequence #8 search for channels and products" style="swimlane;whiteSpace=wrap" parent="1" vertex="1">
          <mxGeometry x="3590" y="800" width="870" height="1010" as="geometry" />
        </mxCell>
        <mxCell id="lFr_UAIBgHDYgoveQ9sL-386" style="edgeStyle=orthogonalEdgeStyle;rounded=0;orthogonalLoop=1;jettySize=auto;html=1;entryX=0;entryY=0.5;entryDx=0;entryDy=0;" parent="lFr_UAIBgHDYgoveQ9sL-385" edge="1">
          <mxGeometry relative="1" as="geometry">
            <Array as="points">
              <mxPoint x="60" y="489" />
              <mxPoint x="60" y="233" />
            </Array>
            <mxPoint x="150" y="233" as="targetPoint" />
          </mxGeometry>
        </mxCell>
        <mxCell id="lFr_UAIBgHDYgoveQ9sL-387" style="edgeStyle=orthogonalEdgeStyle;rounded=0;orthogonalLoop=1;jettySize=auto;html=1;endArrow=none;startFill=0;dashed=1;" parent="lFr_UAIBgHDYgoveQ9sL-385" edge="1">
          <mxGeometry relative="1" as="geometry">
            <mxPoint x="104.75" y="210" as="targetPoint" />
            <mxPoint x="105" y="170" as="sourcePoint" />
            <Array as="points">
              <mxPoint x="105" y="191" />
            </Array>
          </mxGeometry>
        </mxCell>
        <mxCell id="lFr_UAIBgHDYgoveQ9sL-388" value="User" style="shape=umlActor;verticalLabelPosition=bottom;verticalAlign=top;html=1;fillColor=#e1d5e7;strokeColor=#9673a6;" parent="lFr_UAIBgHDYgoveQ9sL-385" vertex="1">
          <mxGeometry x="90" y="90" width="30" height="60" as="geometry" />
        </mxCell>
        <mxCell id="lFr_UAIBgHDYgoveQ9sL-389" value="" style="html=1;points=[[0,0,0,0,5],[0,1,0,0,-5],[1,0,0,0,5],[1,1,0,0,-5]];perimeter=orthogonalPerimeter;outlineConnect=0;targetShapes=umlLifeline;portConstraint=eastwest;newEdgeStyle={&quot;curved&quot;:0,&quot;rounded&quot;:0};fillColor=#e1d5e7;strokeColor=#9673a6;" parent="lFr_UAIBgHDYgoveQ9sL-385" vertex="1">
          <mxGeometry x="100" y="210" width="10" height="750" as="geometry" />
        </mxCell>
        <mxCell id="lFr_UAIBgHDYgoveQ9sL-390" value="Mobile App" style="html=1;whiteSpace=wrap;fillColor=#dae8fc;strokeColor=#6c8ebf;" parent="lFr_UAIBgHDYgoveQ9sL-385" vertex="1">
          <mxGeometry x="240" y="110" width="110" height="50" as="geometry" />
        </mxCell>
        <mxCell id="lFr_UAIBgHDYgoveQ9sL-391" value="API" style="html=1;whiteSpace=wrap;fillColor=#d5e8d4;strokeColor=#82b366;" parent="lFr_UAIBgHDYgoveQ9sL-385" vertex="1">
          <mxGeometry x="430" y="110" width="110" height="50" as="geometry" />
        </mxCell>
        <mxCell id="lFr_UAIBgHDYgoveQ9sL-392" value="Database" style="html=1;whiteSpace=wrap;fillColor=#ffe6cc;strokeColor=#d79b00;" parent="lFr_UAIBgHDYgoveQ9sL-385" vertex="1">
          <mxGeometry x="620" y="110" width="110" height="50" as="geometry" />
        </mxCell>
        <mxCell id="lFr_UAIBgHDYgoveQ9sL-393" value="" style="html=1;points=[[0,0,0,0,5],[0,1,0,0,-5],[1,0,0,0,5],[1,1,0,0,-5]];perimeter=orthogonalPerimeter;outlineConnect=0;targetShapes=umlLifeline;portConstraint=eastwest;newEdgeStyle={&quot;curved&quot;:0,&quot;rounded&quot;:0};fillColor=#dae8fc;strokeColor=#6c8ebf;" parent="lFr_UAIBgHDYgoveQ9sL-385" vertex="1">
          <mxGeometry x="290" y="210" width="10" height="750" as="geometry" />
        </mxCell>
        <mxCell id="lFr_UAIBgHDYgoveQ9sL-394" value="" style="html=1;points=[[0,0,0,0,5],[0,1,0,0,-5],[1,0,0,0,5],[1,1,0,0,-5]];perimeter=orthogonalPerimeter;outlineConnect=0;targetShapes=umlLifeline;portConstraint=eastwest;newEdgeStyle={&quot;curved&quot;:0,&quot;rounded&quot;:0};fillColor=#d5e8d4;strokeColor=#82b366;" parent="lFr_UAIBgHDYgoveQ9sL-385" vertex="1">
          <mxGeometry x="480" y="210" width="10" height="750" as="geometry" />
        </mxCell>
        <mxCell id="lFr_UAIBgHDYgoveQ9sL-395" value="" style="html=1;points=[[0,0,0,0,5],[0,1,0,0,-5],[1,0,0,0,5],[1,1,0,0,-5]];perimeter=orthogonalPerimeter;outlineConnect=0;targetShapes=umlLifeline;portConstraint=eastwest;newEdgeStyle={&quot;curved&quot;:0,&quot;rounded&quot;:0};fillColor=#ffe6cc;strokeColor=#d79b00;" parent="lFr_UAIBgHDYgoveQ9sL-385" vertex="1">
          <mxGeometry x="670" y="210" width="10" height="750" as="geometry" />
        </mxCell>
        <mxCell id="lFr_UAIBgHDYgoveQ9sL-396" value="Render to display to the user" style="html=1;verticalAlign=bottom;endArrow=block;curved=0;rounded=0;dashed=1;strokeWidth=1;" parent="lFr_UAIBgHDYgoveQ9sL-385" edge="1">
          <mxGeometry width="80" relative="1" as="geometry">
            <mxPoint x="290" y="920" as="sourcePoint" />
            <mxPoint x="110" y="920" as="targetPoint" />
            <mxPoint as="offset" />
          </mxGeometry>
        </mxCell>
        <mxCell id="lFr_UAIBgHDYgoveQ9sL-397" style="edgeStyle=orthogonalEdgeStyle;rounded=0;orthogonalLoop=1;jettySize=auto;html=1;endArrow=none;startFill=0;dashed=1;exitX=0.496;exitY=1.056;exitDx=0;exitDy=0;exitPerimeter=0;" parent="lFr_UAIBgHDYgoveQ9sL-385" source="lFr_UAIBgHDYgoveQ9sL-390" edge="1">
          <mxGeometry relative="1" as="geometry">
            <mxPoint x="294.85" y="210" as="targetPoint" />
            <mxPoint x="295.1" y="170" as="sourcePoint" />
            <Array as="points">
              <mxPoint x="295" y="191" />
            </Array>
          </mxGeometry>
        </mxCell>
        <mxCell id="lFr_UAIBgHDYgoveQ9sL-398" style="edgeStyle=orthogonalEdgeStyle;rounded=0;orthogonalLoop=1;jettySize=auto;html=1;endArrow=none;startFill=0;dashed=1;exitX=0.496;exitY=1.056;exitDx=0;exitDy=0;exitPerimeter=0;" parent="lFr_UAIBgHDYgoveQ9sL-385" edge="1">
          <mxGeometry relative="1" as="geometry">
            <mxPoint x="484.81999999999994" y="210" as="targetPoint" />
            <mxPoint x="484.97" y="163" as="sourcePoint" />
            <Array as="points">
              <mxPoint x="484.97" y="191" />
            </Array>
          </mxGeometry>
        </mxCell>
        <mxCell id="lFr_UAIBgHDYgoveQ9sL-399" style="edgeStyle=orthogonalEdgeStyle;rounded=0;orthogonalLoop=1;jettySize=auto;html=1;endArrow=none;startFill=0;dashed=1;exitX=0.496;exitY=1.056;exitDx=0;exitDy=0;exitPerimeter=0;" parent="lFr_UAIBgHDYgoveQ9sL-385" edge="1">
          <mxGeometry relative="1" as="geometry">
            <mxPoint x="674.8199999999999" y="210" as="targetPoint" />
            <mxPoint x="674.97" y="163" as="sourcePoint" />
            <Array as="points">
              <mxPoint x="674.97" y="191" />
            </Array>
          </mxGeometry>
        </mxCell>
        <mxCell id="lFr_UAIBgHDYgoveQ9sL-400" value="user search for product&amp;nbsp;&lt;div&gt;and channel&lt;/div&gt;" style="html=1;verticalAlign=bottom;endArrow=block;curved=0;rounded=0;" parent="lFr_UAIBgHDYgoveQ9sL-385" edge="1">
          <mxGeometry width="80" relative="1" as="geometry">
            <mxPoint x="110" y="250" as="sourcePoint" />
            <mxPoint x="290" y="250" as="targetPoint" />
            <mxPoint as="offset" />
            <Array as="points">
              <mxPoint x="200" y="250" />
            </Array>
          </mxGeometry>
        </mxCell>
        <mxCell id="lFr_UAIBgHDYgoveQ9sL-407" value="Request with search param&amp;nbsp;&lt;div&gt;and take&lt;span style=&quot;background-color: light-dark(#ffffff, var(--ge-dark-color, #121212)); color: light-dark(rgb(0, 0, 0), rgb(255, 255, 255));&quot;&gt;&amp;nbsp;&lt;/span&gt;&lt;/div&gt;" style="html=1;verticalAlign=bottom;endArrow=block;curved=0;rounded=0;" parent="lFr_UAIBgHDYgoveQ9sL-385" edge="1">
          <mxGeometry width="80" relative="1" as="geometry">
            <mxPoint x="300" y="280" as="sourcePoint" />
            <mxPoint x="480" y="280" as="targetPoint" />
            <mxPoint as="offset" />
          </mxGeometry>
        </mxCell>
        <mxCell id="lFr_UAIBgHDYgoveQ9sL-401" value="alt" style="shape=umlFrame;whiteSpace=wrap;html=1;pointerEvents=0;recursiveResize=0;container=1;collapsible=0;width=40;height=20;fontSize=9;" parent="lFr_UAIBgHDYgoveQ9sL-385" vertex="1">
          <mxGeometry x="430" y="340" width="330" height="270" as="geometry" />
        </mxCell>
        <mxCell id="lFr_UAIBgHDYgoveQ9sL-402" value="[if have channels]" style="text;html=1;fontSize=9;" parent="lFr_UAIBgHDYgoveQ9sL-401" vertex="1">
          <mxGeometry width="100" height="20" relative="1" as="geometry">
            <mxPoint x="41" as="offset" />
          </mxGeometry>
        </mxCell>
        <mxCell id="lFr_UAIBgHDYgoveQ9sL-403" value="" style="line;strokeWidth=1;labelPosition=center;verticalLabelPosition=bottom;align=left;verticalAlign=top;spacingLeft=20;spacingTop=15;html=1;whiteSpace=wrap;" parent="lFr_UAIBgHDYgoveQ9sL-401" vertex="1">
          <mxGeometry y="50" width="330" height="220" as="geometry" />
        </mxCell>
        <mxCell id="lFr_UAIBgHDYgoveQ9sL-404" value="&lt;div style=&quot;text-align: left;&quot;&gt;&lt;span style=&quot;background-color: transparent; color: light-dark(rgb(0, 0, 0), rgb(255, 255, 255)); text-wrap-mode: nowrap;&quot;&gt;&lt;font size=&quot;1&quot;&gt;[ if no channel]&lt;/font&gt;&lt;/span&gt;&lt;/div&gt;" style="text;html=1;align=center;verticalAlign=middle;whiteSpace=wrap;rounded=0;fontSize=8;" parent="lFr_UAIBgHDYgoveQ9sL-401" vertex="1">
          <mxGeometry x="70" y="160" width="60" height="30" as="geometry" />
        </mxCell>
        <mxCell id="lFr_UAIBgHDYgoveQ9sL-405" value="&lt;font style=&quot;&quot;&gt;return channels&lt;/font&gt;" style="html=1;verticalAlign=bottom;endArrow=block;curved=0;rounded=0;dashed=1;strokeWidth=1;fontColor=#00CC00;strokeColor=#00CC00;" parent="lFr_UAIBgHDYgoveQ9sL-401" edge="1">
          <mxGeometry width="80" relative="1" as="geometry">
            <mxPoint x="240" y="40" as="sourcePoint" />
            <mxPoint x="60" y="40" as="targetPoint" />
            <mxPoint as="offset" />
          </mxGeometry>
        </mxCell>
        <mxCell id="lFr_UAIBgHDYgoveQ9sL-406" value="&lt;font style=&quot;color: rgb(255, 51, 51);&quot;&gt;return empty array&lt;/font&gt;" style="html=1;verticalAlign=bottom;endArrow=block;curved=0;rounded=0;dashed=1;strokeWidth=1;fontColor=#00CC00;strokeColor=#FF3333;" parent="lFr_UAIBgHDYgoveQ9sL-401" edge="1">
          <mxGeometry x="0.0032" width="80" relative="1" as="geometry">
            <mxPoint x="240" y="230" as="sourcePoint" />
            <mxPoint x="60" y="230" as="targetPoint" />
            <mxPoint as="offset" />
          </mxGeometry>
        </mxCell>
        <mxCell id="7BjtATAYJZL8TBqrzQDQ-30" value="query products with search and&amp;nbsp;&lt;div&gt;those channels&lt;/div&gt;" style="html=1;verticalAlign=bottom;endArrow=block;curved=0;rounded=0;" edge="1" parent="lFr_UAIBgHDYgoveQ9sL-401">
          <mxGeometry width="80" relative="1" as="geometry">
            <mxPoint x="60" y="90.00000000000001" as="sourcePoint" />
            <mxPoint x="240" y="90.00000000000001" as="targetPoint" />
            <mxPoint as="offset" />
          </mxGeometry>
        </mxCell>
        <mxCell id="7BjtATAYJZL8TBqrzQDQ-33" value="return the products" style="html=1;verticalAlign=bottom;endArrow=block;curved=0;rounded=0;dashed=1;strokeWidth=1;" edge="1" parent="lFr_UAIBgHDYgoveQ9sL-401">
          <mxGeometry width="80" relative="1" as="geometry">
            <mxPoint x="240" y="129.52" as="sourcePoint" />
            <mxPoint x="60" y="129.52" as="targetPoint" />
            <mxPoint as="offset" />
          </mxGeometry>
        </mxCell>
        <mxCell id="lFr_UAIBgHDYgoveQ9sL-408" value="query channel name with search" style="html=1;verticalAlign=bottom;endArrow=block;curved=0;rounded=0;" parent="lFr_UAIBgHDYgoveQ9sL-385" edge="1">
          <mxGeometry width="80" relative="1" as="geometry">
            <mxPoint x="490" y="310" as="sourcePoint" />
            <mxPoint x="670" y="310" as="targetPoint" />
            <mxPoint as="offset" />
          </mxGeometry>
        </mxCell>
        <mxCell id="7BjtATAYJZL8TBqrzQDQ-37" value="alt" style="shape=umlFrame;whiteSpace=wrap;html=1;pointerEvents=0;recursiveResize=0;container=1;collapsible=0;width=40;height=20;fontSize=9;" vertex="1" parent="lFr_UAIBgHDYgoveQ9sL-385">
          <mxGeometry x="430" y="630" width="330" height="200" as="geometry" />
        </mxCell>
        <mxCell id="7BjtATAYJZL8TBqrzQDQ-38" value="[if channels &amp;lt; take]" style="text;html=1;fontSize=9;" vertex="1" parent="7BjtATAYJZL8TBqrzQDQ-37">
          <mxGeometry width="100" height="20" relative="1" as="geometry">
            <mxPoint x="41" as="offset" />
          </mxGeometry>
        </mxCell>
        <mxCell id="7BjtATAYJZL8TBqrzQDQ-39" value="" style="line;strokeWidth=1;labelPosition=center;verticalLabelPosition=bottom;align=left;verticalAlign=top;spacingLeft=20;spacingTop=15;html=1;whiteSpace=wrap;" vertex="1" parent="7BjtATAYJZL8TBqrzQDQ-37">
          <mxGeometry y="270" width="330" as="geometry" />
        </mxCell>
        <mxCell id="7BjtATAYJZL8TBqrzQDQ-43" value="query products with search" style="html=1;verticalAlign=bottom;endArrow=block;curved=0;rounded=0;" edge="1" parent="7BjtATAYJZL8TBqrzQDQ-37">
          <mxGeometry width="80" relative="1" as="geometry">
            <mxPoint x="60" y="50.000000000000014" as="sourcePoint" />
            <mxPoint x="240" y="50.000000000000014" as="targetPoint" />
            <mxPoint as="offset" />
          </mxGeometry>
        </mxCell>
        <mxCell id="7BjtATAYJZL8TBqrzQDQ-44" value="return the productId with channelId" style="html=1;verticalAlign=bottom;endArrow=block;curved=0;rounded=0;dashed=1;strokeWidth=1;" edge="1" parent="7BjtATAYJZL8TBqrzQDQ-37">
          <mxGeometry width="80" relative="1" as="geometry">
            <mxPoint x="240" y="90" as="sourcePoint" />
            <mxPoint x="60" y="90" as="targetPoint" />
            <mxPoint as="offset" />
          </mxGeometry>
        </mxCell>
        <mxCell id="7BjtATAYJZL8TBqrzQDQ-46" value="query products with productId" style="html=1;verticalAlign=bottom;endArrow=block;curved=0;rounded=0;" edge="1" parent="7BjtATAYJZL8TBqrzQDQ-37">
          <mxGeometry width="80" relative="1" as="geometry">
            <mxPoint x="60" y="134.71000000000004" as="sourcePoint" />
            <mxPoint x="240" y="134.71000000000004" as="targetPoint" />
            <mxPoint as="offset" />
          </mxGeometry>
        </mxCell>
        <mxCell id="7BjtATAYJZL8TBqrzQDQ-47" value="query channels with channelId" style="html=1;verticalAlign=bottom;endArrow=block;curved=0;rounded=0;" edge="1" parent="7BjtATAYJZL8TBqrzQDQ-37">
          <mxGeometry width="80" relative="1" as="geometry">
            <mxPoint x="60" y="170" as="sourcePoint" />
            <mxPoint x="240" y="170" as="targetPoint" />
            <mxPoint as="offset" />
          </mxGeometry>
        </mxCell>
        <mxCell id="7BjtATAYJZL8TBqrzQDQ-48" value="combine products and&amp;nbsp;&lt;div&gt;channels return it&lt;/div&gt;" style="html=1;verticalAlign=bottom;endArrow=block;curved=0;rounded=0;dashed=1;strokeWidth=1;" edge="1" parent="lFr_UAIBgHDYgoveQ9sL-385">
          <mxGeometry width="80" relative="1" as="geometry">
            <mxPoint x="480" y="880" as="sourcePoint" />
            <mxPoint x="300" y="880" as="targetPoint" />
            <mxPoint as="offset" />
          </mxGeometry>
        </mxCell>
        <mxCell id="7BjtATAYJZL8TBqrzQDQ-2" value="sequence #4 Browse channels by distance" style="swimlane;whiteSpace=wrap" vertex="1" parent="1">
          <mxGeometry x="2000" y="1830" width="780" height="710" as="geometry" />
        </mxCell>
        <mxCell id="7BjtATAYJZL8TBqrzQDQ-3" style="edgeStyle=orthogonalEdgeStyle;rounded=0;orthogonalLoop=1;jettySize=auto;html=1;entryX=0;entryY=0.5;entryDx=0;entryDy=0;" edge="1" parent="7BjtATAYJZL8TBqrzQDQ-2">
          <mxGeometry relative="1" as="geometry">
            <Array as="points">
              <mxPoint x="60" y="489" />
              <mxPoint x="60" y="233" />
            </Array>
            <mxPoint x="150" y="233" as="targetPoint" />
          </mxGeometry>
        </mxCell>
        <mxCell id="7BjtATAYJZL8TBqrzQDQ-4" style="edgeStyle=orthogonalEdgeStyle;rounded=0;orthogonalLoop=1;jettySize=auto;html=1;endArrow=none;startFill=0;dashed=1;" edge="1" parent="7BjtATAYJZL8TBqrzQDQ-2">
          <mxGeometry relative="1" as="geometry">
            <mxPoint x="104.75" y="210" as="targetPoint" />
            <mxPoint x="105" y="170" as="sourcePoint" />
            <Array as="points">
              <mxPoint x="105" y="191" />
            </Array>
          </mxGeometry>
        </mxCell>
        <mxCell id="7BjtATAYJZL8TBqrzQDQ-5" value="User" style="shape=umlActor;verticalLabelPosition=bottom;verticalAlign=top;html=1;fillColor=#e1d5e7;strokeColor=#9673a6;" vertex="1" parent="7BjtATAYJZL8TBqrzQDQ-2">
          <mxGeometry x="90" y="90" width="30" height="60" as="geometry" />
        </mxCell>
        <mxCell id="7BjtATAYJZL8TBqrzQDQ-6" value="" style="html=1;points=[[0,0,0,0,5],[0,1,0,0,-5],[1,0,0,0,5],[1,1,0,0,-5]];perimeter=orthogonalPerimeter;outlineConnect=0;targetShapes=umlLifeline;portConstraint=eastwest;newEdgeStyle={&quot;curved&quot;:0,&quot;rounded&quot;:0};fillColor=#e1d5e7;strokeColor=#9673a6;" vertex="1" parent="7BjtATAYJZL8TBqrzQDQ-2">
          <mxGeometry x="100" y="210" width="10" height="450" as="geometry" />
        </mxCell>
        <mxCell id="7BjtATAYJZL8TBqrzQDQ-7" value="Mobile App" style="html=1;whiteSpace=wrap;fillColor=#dae8fc;strokeColor=#6c8ebf;" vertex="1" parent="7BjtATAYJZL8TBqrzQDQ-2">
          <mxGeometry x="240" y="110" width="110" height="50" as="geometry" />
        </mxCell>
        <mxCell id="7BjtATAYJZL8TBqrzQDQ-8" value="API" style="html=1;whiteSpace=wrap;fillColor=#d5e8d4;strokeColor=#82b366;" vertex="1" parent="7BjtATAYJZL8TBqrzQDQ-2">
          <mxGeometry x="430" y="110" width="110" height="50" as="geometry" />
        </mxCell>
        <mxCell id="7BjtATAYJZL8TBqrzQDQ-9" value="Database" style="html=1;whiteSpace=wrap;fillColor=#ffe6cc;strokeColor=#d79b00;" vertex="1" parent="7BjtATAYJZL8TBqrzQDQ-2">
          <mxGeometry x="620" y="110" width="110" height="50" as="geometry" />
        </mxCell>
        <mxCell id="7BjtATAYJZL8TBqrzQDQ-10" value="" style="html=1;points=[[0,0,0,0,5],[0,1,0,0,-5],[1,0,0,0,5],[1,1,0,0,-5]];perimeter=orthogonalPerimeter;outlineConnect=0;targetShapes=umlLifeline;portConstraint=eastwest;newEdgeStyle={&quot;curved&quot;:0,&quot;rounded&quot;:0};fillColor=#dae8fc;strokeColor=#6c8ebf;" vertex="1" parent="7BjtATAYJZL8TBqrzQDQ-2">
          <mxGeometry x="290" y="210" width="10" height="450" as="geometry" />
        </mxCell>
        <mxCell id="7BjtATAYJZL8TBqrzQDQ-11" value="" style="html=1;points=[[0,0,0,0,5],[0,1,0,0,-5],[1,0,0,0,5],[1,1,0,0,-5]];perimeter=orthogonalPerimeter;outlineConnect=0;targetShapes=umlLifeline;portConstraint=eastwest;newEdgeStyle={&quot;curved&quot;:0,&quot;rounded&quot;:0};fillColor=#d5e8d4;strokeColor=#82b366;" vertex="1" parent="7BjtATAYJZL8TBqrzQDQ-2">
          <mxGeometry x="480" y="210" width="10" height="450" as="geometry" />
        </mxCell>
        <mxCell id="7BjtATAYJZL8TBqrzQDQ-12" value="" style="html=1;points=[[0,0,0,0,5],[0,1,0,0,-5],[1,0,0,0,5],[1,1,0,0,-5]];perimeter=orthogonalPerimeter;outlineConnect=0;targetShapes=umlLifeline;portConstraint=eastwest;newEdgeStyle={&quot;curved&quot;:0,&quot;rounded&quot;:0};fillColor=#ffe6cc;strokeColor=#d79b00;" vertex="1" parent="7BjtATAYJZL8TBqrzQDQ-2">
          <mxGeometry x="670" y="210" width="10" height="450" as="geometry" />
        </mxCell>
        <mxCell id="7BjtATAYJZL8TBqrzQDQ-13" value="details on the screen" style="html=1;verticalAlign=bottom;endArrow=block;curved=0;rounded=0;dashed=1;strokeWidth=1;" edge="1" parent="7BjtATAYJZL8TBqrzQDQ-2">
          <mxGeometry width="80" relative="1" as="geometry">
            <mxPoint x="290" y="550" as="sourcePoint" />
            <mxPoint x="110" y="550" as="targetPoint" />
            <mxPoint as="offset" />
          </mxGeometry>
        </mxCell>
        <mxCell id="7BjtATAYJZL8TBqrzQDQ-14" style="edgeStyle=orthogonalEdgeStyle;rounded=0;orthogonalLoop=1;jettySize=auto;html=1;endArrow=none;startFill=0;dashed=1;exitX=0.496;exitY=1.056;exitDx=0;exitDy=0;exitPerimeter=0;" edge="1" parent="7BjtATAYJZL8TBqrzQDQ-2" source="7BjtATAYJZL8TBqrzQDQ-7">
          <mxGeometry relative="1" as="geometry">
            <mxPoint x="294.85" y="210" as="targetPoint" />
            <mxPoint x="295.1" y="170" as="sourcePoint" />
            <Array as="points">
              <mxPoint x="295" y="191" />
            </Array>
          </mxGeometry>
        </mxCell>
        <mxCell id="7BjtATAYJZL8TBqrzQDQ-15" style="edgeStyle=orthogonalEdgeStyle;rounded=0;orthogonalLoop=1;jettySize=auto;html=1;endArrow=none;startFill=0;dashed=1;exitX=0.496;exitY=1.056;exitDx=0;exitDy=0;exitPerimeter=0;" edge="1" parent="7BjtATAYJZL8TBqrzQDQ-2">
          <mxGeometry relative="1" as="geometry">
            <mxPoint x="484.81999999999994" y="210" as="targetPoint" />
            <mxPoint x="484.97" y="163" as="sourcePoint" />
            <Array as="points">
              <mxPoint x="484.97" y="191" />
            </Array>
          </mxGeometry>
        </mxCell>
        <mxCell id="7BjtATAYJZL8TBqrzQDQ-16" style="edgeStyle=orthogonalEdgeStyle;rounded=0;orthogonalLoop=1;jettySize=auto;html=1;endArrow=none;startFill=0;dashed=1;exitX=0.496;exitY=1.056;exitDx=0;exitDy=0;exitPerimeter=0;" edge="1" parent="7BjtATAYJZL8TBqrzQDQ-2">
          <mxGeometry relative="1" as="geometry">
            <mxPoint x="674.8199999999999" y="210" as="targetPoint" />
            <mxPoint x="674.97" y="163" as="sourcePoint" />
            <Array as="points">
              <mxPoint x="674.97" y="191" />
            </Array>
          </mxGeometry>
        </mxCell>
        <mxCell id="7BjtATAYJZL8TBqrzQDQ-17" value="Open store menu screen" style="html=1;verticalAlign=bottom;endArrow=block;curved=0;rounded=0;" edge="1" parent="7BjtATAYJZL8TBqrzQDQ-2">
          <mxGeometry width="80" relative="1" as="geometry">
            <mxPoint x="110" y="250" as="sourcePoint" />
            <mxPoint x="290" y="250" as="targetPoint" />
            <mxPoint as="offset" />
            <Array as="points">
              <mxPoint x="200" y="250" />
            </Array>
          </mxGeometry>
        </mxCell>
        <mxCell id="7BjtATAYJZL8TBqrzQDQ-18" value="alt" style="shape=umlFrame;whiteSpace=wrap;html=1;pointerEvents=0;recursiveResize=0;container=1;collapsible=0;width=40;height=20;fontSize=9;" vertex="1" parent="7BjtATAYJZL8TBqrzQDQ-2">
          <mxGeometry x="260" y="330" width="440" height="190" as="geometry" />
        </mxCell>
        <mxCell id="7BjtATAYJZL8TBqrzQDQ-19" value="[valid if lat/lng are pass]" style="text;html=1;fontSize=9;" vertex="1" parent="7BjtATAYJZL8TBqrzQDQ-18">
          <mxGeometry width="100" height="20" relative="1" as="geometry">
            <mxPoint x="41" as="offset" />
          </mxGeometry>
        </mxCell>
        <mxCell id="7BjtATAYJZL8TBqrzQDQ-20" value="" style="line;strokeWidth=1;labelPosition=center;verticalLabelPosition=bottom;align=left;verticalAlign=top;spacingLeft=20;spacingTop=15;html=1;whiteSpace=wrap;" vertex="1" parent="7BjtATAYJZL8TBqrzQDQ-18">
          <mxGeometry y="125" width="440" height="10" as="geometry" />
        </mxCell>
        <mxCell id="7BjtATAYJZL8TBqrzQDQ-21" value="&lt;span style=&quot;font-size: 9px; text-align: left; text-wrap-mode: nowrap;&quot;&gt;[invalid information]&lt;/span&gt;" style="text;html=1;align=center;verticalAlign=middle;whiteSpace=wrap;rounded=0;fontSize=8;" vertex="1" parent="7BjtATAYJZL8TBqrzQDQ-18">
          <mxGeometry x="50" y="125" width="60" height="30" as="geometry" />
        </mxCell>
        <mxCell id="7BjtATAYJZL8TBqrzQDQ-22" value="&lt;font style=&quot;color: rgb(255, 51, 51);&quot;&gt;lat/lng is require&lt;/font&gt;" style="html=1;verticalAlign=bottom;endArrow=block;curved=0;rounded=0;dashed=1;strokeWidth=1;fontColor=#00CC00;strokeColor=#FF3333;" edge="1" parent="7BjtATAYJZL8TBqrzQDQ-18">
          <mxGeometry x="0.0032" width="80" relative="1" as="geometry">
            <mxPoint x="220" y="170" as="sourcePoint" />
            <mxPoint x="40" y="170" as="targetPoint" />
            <mxPoint as="offset" />
          </mxGeometry>
        </mxCell>
        <mxCell id="7BjtATAYJZL8TBqrzQDQ-23" value="Request channels&amp;nbsp;&lt;div&gt;order by distance&amp;nbsp;&lt;/div&gt;" style="html=1;verticalAlign=bottom;endArrow=block;curved=0;rounded=0;" edge="1" parent="7BjtATAYJZL8TBqrzQDQ-18">
          <mxGeometry width="80" relative="1" as="geometry">
            <mxPoint x="40" y="60" as="sourcePoint" />
            <mxPoint x="220" y="60" as="targetPoint" />
            <mxPoint as="offset" />
          </mxGeometry>
        </mxCell>
        <mxCell id="7BjtATAYJZL8TBqrzQDQ-24" value="response channels" style="html=1;verticalAlign=bottom;endArrow=block;curved=0;rounded=0;dashed=1;strokeWidth=1;" edge="1" parent="7BjtATAYJZL8TBqrzQDQ-18">
          <mxGeometry width="80" relative="1" as="geometry">
            <mxPoint x="410" y="94.28999999999996" as="sourcePoint" />
            <mxPoint x="230" y="94.28999999999996" as="targetPoint" />
            <mxPoint as="offset" />
          </mxGeometry>
        </mxCell>
        <mxCell id="7BjtATAYJZL8TBqrzQDQ-25" value="query channels" style="html=1;verticalAlign=bottom;endArrow=block;curved=0;rounded=0;" edge="1" parent="7BjtATAYJZL8TBqrzQDQ-18">
          <mxGeometry width="80" relative="1" as="geometry">
            <mxPoint x="230" y="70" as="sourcePoint" />
            <mxPoint x="410" y="70" as="targetPoint" />
            <mxPoint as="offset" />
          </mxGeometry>
        </mxCell>
        <mxCell id="7BjtATAYJZL8TBqrzQDQ-26" value="&lt;font style=&quot;&quot;&gt;return channels&amp;nbsp;&lt;/font&gt;&lt;div&gt;&lt;font style=&quot;&quot;&gt;order by distance&lt;/font&gt;&lt;/div&gt;" style="html=1;verticalAlign=bottom;endArrow=block;curved=0;rounded=0;dashed=1;strokeWidth=1;fontColor=#00CC00;strokeColor=#00CC00;" edge="1" parent="7BjtATAYJZL8TBqrzQDQ-18">
          <mxGeometry width="80" relative="1" as="geometry">
            <mxPoint x="220" y="120" as="sourcePoint" />
            <mxPoint x="40" y="120" as="targetPoint" />
            <mxPoint as="offset" />
          </mxGeometry>
        </mxCell>
      </root>
    </mxGraphModel>
  </diagram>
</mxfile>
